<?xml version="1.0" encoding="utf-8" ?>
<svg baseProfile="full" height="298.29895581198343" version="1.1" width="435.6952804327011" xmlns="http://www.w3.org/2000/svg" xmlns:ev="http://www.w3.org/2001/xml-events" xmlns:xlink="http://www.w3.org/1999/xlink"><defs /><rect fill="white" height="298.29895581198343" width="435.6952804327011" x="0" y="0" /><path d="M25,25 m0.0,0.0 m32.10131326224655,22.066485827945144 l2.178395539522171,0.04404086619615555 9.051843881607056,-0.8125926554203033 l4.4475555419921875,0.12199142947793007 2.5988316535949707,0.282159186899662 l1.7953388392925262,0.7140122354030609 1.561482548713684,1.4813795685768127 l0.45921120792627335,1.2365908920764923 0.015624449588358402,2.231832891702652 l-0.9980888664722443,1.603078842163086 -1.4917953312397003,1.1728143692016602 l-3.9756888151168823,1.6450336575508118 -2.8484296798706055,0.5836321786046028 l-4.487078487873077,4.514849933912046e-05 -4.559366703033447,-0.42816244065761566 l-2.65079528093338,-1.0558652877807617 -2.514350712299347,-1.4270007610321045 l-1.236315369606018,-1.6066910326480865 -0.39150819182395935,-1.2942928075790405 l0.02378496341407299,-1.3836085796356201 1.0544416308403015,-2.038220912218094 l1.6454371809959412,-1.5667663514614105 1.5935777127742767,-0.6767290085554123 m-4.618537127971649,6.595686674118042 l0.22535452619194984,6.245422959327698 0.6765804439783096,2.442508488893509 l1.0970092564821243,1.6338275372982025 2.6413172483444214,1.3623221218585968 l2.206082344055176,0.4731975123286247 6.566019654273987,0.19452035427093506 l5.061126351356506,-0.7890685647726059 3.788166046142578,-1.4771763980388641 l2.9821157455444336,-1.9569341838359833 0.9615983068943024,-1.0562889277935028 l0.6416534632444382,-2.3681582510471344 -0.0196210783906281,-3.4724795818328857 l-0.36093711853027344,-1.4582979679107666 m-16.36862874031067,-1.8882258236408234 l-0.37622589617967606,-1.3704247772693634 -0.5251805111765862,-4.808610379695892 l-0.42727917432785034,-2.2772669792175293 0.04309440031647682,-1.1219822615385056 l0.6002676114439964,-1.185760423541069 1.0506487637758255,-0.8704166114330292 l0.4330606386065483,0.10733094066381454 0.5868595838546753,1.5687045454978943 l0.19072707742452621,2.5126269459724426 0.8082536607980728,5.650379657745361 l0.11734710074961185,2.4446141719818115 -0.31670067459344864,0.6052744016051292 m-3.2250970602035522,-11.452479362487793 l-0.6095162034034729,-0.9715027362108231 -0.08071714080870152,-1.171521320939064 l0.37418387830257416,-1.3247857987880707 1.0409607738256454,-1.4607743918895721 l0.32974187284708023,0.8518579602241516 1.090037003159523,2.16206893324852 l0.12919372878968716,0.9031480550765991 -0.3260580450296402,0.5678083375096321 l-0.7317942380905151,0.18993891775608063 -0.3823442757129669,-0.5109061673283577 m-1.8377606570720673,11.02267861366272 l-0.8195849508047104,-5.6518226861953735 -0.016270645428448915,-1.7246052622795105 l0.47280453145504,-0.3183659538626671 1.0416451841592789,1.1091482639312744 l0.3242812305688858,1.0031512379646301 0.36882132291793823,4.606204926967621 l-0.004533596511464566,1.2504276633262634 -0.03326034173369408,0.4947267472743988 l-0.49964286386966705,-0.0924430601298809 m-1.6120366752147675,-9.197191596031189 l-0.6544139236211777,-1.4354021847248077 0.07746395654976368,-0.8951032906770706 l0.6129493191838264,-1.198895126581192 0.6287360936403275,-0.31387679278850555 l0.8047403395175934,0.8613628149032593 0.29312891885638237,1.0605785995721817 l0.018404662841930985,1.0844214260578156 -0.3578126057982445,0.9345619380474091 l-0.7668241113424301,0.11996518820524216 m7.014921307563782,8.637811541557312 l-0.8760590851306915,-3.9619237184524536 -0.01354469801299274,-3.9835184812545776 l0.5839711427688599,-0.23176059126853943 0.4980803281068802,0.2090134471654892 l0.6478677690029144,1.4990246295928955 0.36669161170721054,2.851308584213257 l-0.10130412876605988,2.8237399458885193 0.03158059902489185,0.5397296324372292 l-0.28508879244327545,0.13468371704220772 m-1.5730738639831543,-8.821681141853333 l-0.3026590123772621,-2.237541079521179 0.26181451976299286,-1.3117033243179321 l0.6661458313465118,-0.4047270119190216 0.41605226695537567,0.33659931272268295 l0.19766667857766151,0.6710918247699738 -0.07799215614795685,1.5915200114250183 l-0.38167648017406464,0.7691990584135056 m-8.036153316497803,8.660234212875366 l-0.5323014035820961,-2.27183073759079 m66.41251641296549,8.799332681810483 l0.9557269513607025,7.008330821990967 0.03945833072066307,6.808125972747803 l0.57541873306036,2.1194355189800262 1.0124550759792328,0.6605907529592514 l3.1993308663368225,0.25980887934565544 9.071539640426636,-0.6562415510416031 l9.76974070072174,-0.6042465940117836 8.537843227386475,-0.6010715663433075 l4.7312164306640625,0.20759817212820053 0.4950672760605812,-2.6999592781066895 l0.09201353415846825,-7.396082282066345 0.13834379613399506,-4.645666778087616 l-0.40957316756248474,-2.00956329703331 -0.609966367483139,-0.6033880636096001 l-1.838168203830719,-0.3981836885213852 -7.023804187774658,0.1568150892853737 l-16.99092984199524,1.2104174494743347 -10.535387992858887,0.9217086434364319 l-1.1259732395410538,0.5277636647224426 m3.9854389429092407,-0.5563440918922424 l-0.3866048529744148,-6.3740962743759155 0.08635776117444038,-2.687545418739319 l2.764817476272583,-0.1436613965779543 0.41488446295261383,0.3810041770339012 l-0.35828016698360443,6.417386531829834 0.0571744330227375,2.778974771499634 m8.397799730300903,-1.1916515976190567 l0.25590745732188225,-5.892750024795532 0.5213937908411026,-2.889856994152069 l2.870522439479828,-0.4228575527667999 0.401189923286438,0.18479423597455025 l0.12223008088767529,6.2532490491867065 0.3835686668753624,2.260059416294098 m5.61708927154541,-1.4979705214500427 l0.23557189851999283,-6.137779951095581 0.24754971265792847,-0.6607060879468918 l2.4322061240673065,-0.6187329813838005 1.836831271648407,0.3724302724003792 l-0.73307104408741,6.949598789215088 0.11074839159846306,0.7757601886987686 m-14.566409587860107,-11.590381860733032 l-0.03008092287927866,1.0800264030694962 -1.0659205913543701,1.1876162886619568 l-0.6848514080047607,1.233622282743454 -0.31381070613861084,1.1709044873714447 l0.35344723612070084,0.471954308450222 0.6049789488315582,-0.06666088942438364 l0.5849263072013855,-0.474814735352993 0.5167322233319283,-1.0280963033437729 l0.09650884196162224,-1.2195094674825668 -0.7327718287706375,-2.378357946872711 m11.591819524765015,-1.3418595492839813 l-1.3361939787864685,1.3519059121608734 -0.5909707024693489,1.653037667274475 l0.2167879231274128,1.184282973408699 0.48815708607435226,0.4987478628754616 l1.186251938343048,0.07952114567160606 0.6952917575836182,-0.49838826060295105 l0.4773225635290146,-1.3572165369987488 -0.007212088676169515,-1.6903312504291534 l-0.36421041935682297,-0.5531908944249153 -1.2931512296199799,-0.4053382948040962 m-9.531388878822327,1.4361418783664703 l-0.8309527486562729,0.6471360474824905 -0.6352341920137405,1.5583737194538116 l0.02883364912122488,1.2120050191879272 0.9141924977302551,0.7111705094575882 l0.8640190213918686,0.02629632828757167 0.5680252611637115,-0.36325663328170776 l0.38600094616413116,-1.211181879043579 -0.1341419667005539,-1.2367051094770432 l-1.2195001542568207,-1.791241466999054 m-10.061885118484497,-0.4715253412723541 l-0.2652028575539589,3.3330729603767395 0.8254999667406082,0.6790366768836975 l0.8609876781702042,0.18556468188762665 0.5546841397881508,-0.3779242932796478 l0.5300299823284149,-1.240270957350731 -0.018386172596365213,-1.753205955028534 l-0.7392647117376328,-1.2641476094722748 -0.5479700490832329,-0.4046565294265747 m10.023421049118042,0.527280643582344 l0.002283345675095916,1.0331374406814575 0.4424365237355232,1.439455896615982 l0.5468745157122612,0.4142884165048599 0.8932243287563324,-0.43999940156936646 l0.32304495573043823,-0.8636952936649323 -0.105868149548769,-1.5610204637050629 l-0.48643864691257477,-0.6007785350084305 -1.064913049340248,0.4829368367791176 l-0.982983261346817,1.3939286768436432 -0.12459654361009598,1.257309913635254 l0.7866480946540833,0.9325733035802841 1.2437956035137177,0.31400706619024277 l1.1883212625980377,-0.7121169567108154 0.48696890473365784,-0.7237666845321655 l0.2805047854781151,-1.465277373790741 -0.45716606080532074,-1.0693252831697464 l-0.6616758555173874,-0.43951187282800674 -1.2947992980480194,-0.16564611345529556 m63.40543836355209,11.563821259264842 l0.18625549972057343,7.32105016708374 -0.4028373211622238,11.04488492012024 l1.7691147327423096,0.4390694946050644 4.126441180706024,0.044831689447164536 l10.030263662338257,-1.262809932231903 8.554472923278809,-0.32623201608657837 l9.15231168270111,-1.043478548526764 0.6164108589291573,-1.3791464269161224 l0.7696621865034103,-5.1176899671554565 0.24367887526750565,-6.57909631729126 l-0.37541840225458145,-4.306097328662872 -0.534232035279274,-0.29548516497015953 l-3.843555450439453,0.30402524396777153 -15.283143520355225,1.2124411016702652 l-10.995539426803589,0.2829713374376297 -3.295295238494873,0.017639375291764736 m1.8115495145320892,2.53111332654953 l6.857998967170715,0.17996037378907204 6.0852742195129395,-0.8675580471754074 l9.08569872379303,0.33776577562093735 7.792121171951294,-0.4072824493050575 m-30.250473022460938,7.0409417152404785 l3.559722900390625,0.3140454739332199 10.038456916809082,0.00012458286619221326 l12.125802040100098,0.4497331753373146 5.530933737754822,0.13558637350797653 m-29.650919437408447,-1.8954336643218994 l2.013872414827347,0.24961823597550392 8.121000528335571,0.5550692230463028 l9.74907398223877,0.3988710418343544 9.305938482284546,-0.13378169387578964 m-27.738511562347412,-15.055972337722778 l0.30929770320653915,4.278416633605957 0.35484377294778824,2.4131835997104645 m3.2646501064300537,-7.023201584815979 l4.4121120481577236e-05,6.112989783287048 0.33635519444942474,1.1617835611104965 m5.227302312850952,-6.906489729881287 l0.14087502844631672,4.701806008815765 m5.036728382110596,-5.811886191368103 l0.30914200469851494,5.088410973548889 m5.89093804359436,-5.610911846160889 l0.18959416076540947,4.025501906871796 m5.068076252937317,-3.255188465118408 l-0.03123293397948146,2.6884275674819946 m-23.74422788619995,1.1863762885332108 l-0.13750283978879452,2.305828183889389 0.06088383495807648,2.113502621650696 m0.028824182227253914,-5.804340839385986 l0.011812252923846245,-0.4399877041578293 -0.00789501704275608,-1.0987210273742676 l0.16431260854005814,-0.7430019974708557 0.5296818166971207,-0.23940743878483772 l0.4367538169026375,1.6642922163009644 -0.2097957581281662,1.069810464978218 m4.007563591003418,-1.4164553582668304 l-0.12482703663408756,-0.3859754279255867 0.006635643076151609,-1.3980256021022797 l0.5960224196314812,-0.11267140507698059 0.4388110339641571,0.4737390950322151 l0.018737887730821967,1.3276532292366028 m4.703992009162903,-0.713895782828331 l-0.06984350737184286,-1.44512340426445 0.5038508400321007,-0.7345930486917496 l0.9028564393520355,-0.19364537671208382 0.3476783260703087,0.7067383825778961 l-0.017477228539064527,0.8138860017061234 m3.9444243907928467,0.9726181626319885 l-0.5111099407076836,-1.4505267143249512 0.19491352140903473,-0.8785176277160645 l0.43031245470046997,-0.42925700545310974 0.6309814751148224,0.00020866111299255863 l0.5057930201292038,1.0927613824605942 -0.14485131949186325,1.2750761210918427 m4.188401699066162,0.5880962684750557 l-0.43914414942264557,-1.5057098865509033 0.24906516075134277,-0.951617881655693 l0.8975838869810104,-0.3498775511980057 0.7318416237831116,0.456799753010273 l0.1870695874094963,0.6083694100379944 -0.17954746261239052,1.1390653997659683 m3.377617597579956,0.777646005153656 l-0.7032564282417297,-1.3741084933280945 0.11853729374706745,-0.8615362644195557 l0.9501752257347107,-0.3142239525914192 0.455222949385643,0.32212212681770325 l0.1931166835129261,0.574040450155735 -0.17365092411637306,1.1842714995145798 m-19.59596037864685,8.585876822471619 l-0.3628530353307724,-0.5736143514513969 -0.07018239703029394,-0.963607057929039 l0.13918413780629635,-1.6667340695858002 0.5701516568660736,-1.061541959643364 l1.3940198719501495,-0.5156676098704338 0.5779678374528885,0.30259450897574425 l0.1612665317952633,0.7064369320869446 -0.4588990658521652,2.1759995818138123 m-1.6120657324790955,-1.8315118551254272 l-0.26994090527296066,-1.9963714480400085 0.29411977156996727,-1.0321655869483948 m67.85688900650257,0.36683426062609215 l0.022705206647515297,1.8694669008255005 -0.4393335431814194,6.156069040298462 l-0.10855424217879772,3.6790674924850464 0.4096202552318573,1.9160692393779755 l1.652696430683136,1.1974862217903137 3.9159339666366577,1.0399699211120605 l6.5979015827178955,0.6495019793510437 8.156563639640808,8.058251296461094e-05 l5.502087473869324,-0.6835179775953293 1.1817540973424911,-0.40988560765981674 l0.5158662050962448,-0.5755101144313812 0.9883548319339752,-3.7777426838874817 l0.17810853198170662,-4.722863435745239 -0.8237694948911667,-6.767585277557373 l-0.45095711946487427,-0.7601060718297958 -0.7651662826538086,-0.38645345717668533 l-5.709189772605896,0.08336835540831089 -14.764738082885742,0.5878143385052681 l-5.066657066345215,0.8350905776023865 -1.2134888023138046,0.4556803032755852 m2.934752404689789,2.902265787124634 l1.2806114554405212,0.8067826926708221 1.6155828535556793,0.4876691848039627 l4.743305742740631,0.3160695359110832 5.441904664039612,0.00017933789422386326 l7.135288119316101,-0.6101923063397408 3.7002143263816833,-0.768987387418747 l0.9939955174922943,-0.47117140144109726 m-23.34859609603882,3.974730670452118 l2.970399856567383,1.1302290856838226 1.9061462581157684,0.33927682787179947 l4.404679536819458,-0.31443577259778976 4.426570236682892,-0.8596304059028625 l6.342774033546448,-0.6788338720798492 1.7923255264759064,-0.5685087665915489 m-22.62579917907715,3.6915889382362366 l7.269062399864197,1.2197770178318024 8.106200695037842,9.037590643856674e-05 l4.885281622409821,-0.7588478922843933 3.3547785878181458,-1.1317501217126846 m-17.059630155563354,-9.137606024742126 l0.0610257126390934,-4.998637139797211 0.7795832306146622,-0.48575472086668015 l0.349830761551857,0.22872507572174072 0.0948223378509283,4.93297278881073 l0.041484921239316463,0.5705709382891655 m-0.8772407472133636,-6.114140748977661 l-0.8517254889011383,-0.7325196266174316 -0.16917256638407707,-1.0235676914453506 l0.6139416247606277,-1.4236870408058167 0.6781679391860962,-0.9883415699005127 l0.35941988229751587,1.152501404285431 0.5648463219404221,1.3312752544879913 l-0.03781551728025079,0.7877583801746368 -0.3961082920432091,0.37541501224040985 m6.45081102848053,5.562053918838501 l-0.384867861866951,-2.8039178252220154 1.071644350886345,-0.6037441268563271 l0.07983041927218437,2.4877366423606873 0.002250616962555796,1.4800536632537842 m-1.054246425628662,-3.9541608095169067 l-0.9815071523189545,-2.216702550649643 -0.14338582754135132,-1.7439207434654236 l0.765596553683281,-0.7473528385162354 0.9195900708436966,1.1914239823818207 l0.19808609038591385,1.0995576530694962 -0.12052967213094234,0.8361385017633438 l-0.7397300004959106,0.8991445600986481 m-10.0453782081604,6.234071850776672 l1.5264494717121124,1.3898009061813354 1.6638734936714172,0.7918958365917206 l1.886509507894516,-0.3524290397763252 1.2752872705459595,-1.0309193283319473 l1.0915754735469818,1.222439706325531 1.6221845149993896,0.58067187666893 l1.544690877199173,0.00022237705707084388 1.7087149620056152,-0.9377068281173706 l1.1381132155656815,-1.6214561462402344 1.0654205828905106,1.2248285114765167 l0.9390173107385635,0.3734663128852844 1.2678830325603485,-0.3199145942926407 l1.0388299077749252,-1.2998360395431519 0.752100795507431,0.47776564955711365 l0.6366603076457977,-0.049200085923075676 0.7234861701726913,-0.2630218677222729 l0.652216374874115,-1.1792486160993576 m-20.939621925354004,6.388026475906372 l0.25771938264369965,0.829811692237854 0.9064792841672897,0.6990404427051544 l1.0685011744499207,0.20470662042498589 1.9814272224903107,-0.3030584007501602 l1.8976406753063202,-1.3156850636005402 1.7130254209041595,1.045789197087288 l1.2918627262115479,0.238700769841671 1.6009452939033508,-0.3329427167773247 l1.5945132076740265,-1.2168753147125244 1.471601277589798,1.0220984369516373 l1.090974509716034,0.2180078625679016 1.5387646853923798,-0.41635729372501373 l1.5984342992305756,-1.2620161473751068 m54.55446000298252,-1.4833015439762676 l-0.04408544860780239,6.697695255279541 -0.5321484431624413,5.188339352607727 l0.206163227558136,3.1693124771118164 0.36521852016448975,0.45633669942617416 l2.6863285899162292,1.5703459084033966 4.115933179855347,1.0139162838459015 l6.4567965269088745,0.6714241206645966 5.559554100036621,0.00013730798855249304 l5.154919624328613,-0.5592614412307739 3.7502536177635193,-1.146199256181717 l1.3956519961357117,-0.8033460378646851 1.3724541664123535,-1.612580567598343 l0.5606184154748917,-1.367148756980896 0.3936699777841568,-3.49496066570282 l-0.2792998403310776,-5.427584648132324 -0.15994694083929062,-5.464376211166382 l-0.3159460425376892,-0.5731968581676483 -1.2248247116804123,-0.433851033449173 l-4.837439954280853,0.38818947970867157 -14.085489511489868,2.4461299180984497 l-8.256387710571289,-0.25536324828863144 -2.1948133409023285,-0.21396063268184662 l-0.23523075506091118,-0.9171844273805618 0.8023468405008316,-1.4074182510375977 l2.501080632209778,-1.7648659646511078 4.1862282156944275,-1.684621274471283 l4.373643398284912,-0.7899781316518784 6.840954422950745,-0.20186502486467361 l3.9474421739578247,0.6014988198876381 3.1078526377677917,1.1481593549251556 l2.1549923717975616,1.2581142783164978 1.449582427740097,1.5130339562892914 l0.10693651624023914,0.5593229085206985 -0.2258685790002346,0.5562295392155647 m-21.361944675445557,-0.3433462977409363 l-0.8996711671352386,-6.2447017431259155 0.09361768141388893,-2.665286660194397 m7.561299800872803,7.439500689506531 l0.035075421910732985,-5.084071159362793 0.70667564868927,-4.127444624900818 m5.663485527038574,9.41795527935028 l0.6576862186193466,-5.096197724342346 1.1181654036045074,-3.8563013076782227 m2.3640550673007965,8.751243352890015 l0.3195496276021004,-1.3853628933429718 1.6386070847511292,-3.5654187202453613 l2.149612605571747,-2.957877516746521 m-21.879546642303467,16.281229257583618 l-0.4549743980169296,-1.762678176164627 -0.07759473752230406,-2.9040059447288513 l0.27559002861380577,-2.1872760355472565 0.6271862238645554,-1.6352061927318573 l0.9857770800590515,-1.3206735253334045 m6.539642810821533,9.708868265151978 l-0.33531397581100464,-1.0396797209978104 0.1288814004510641,-1.7216838896274567 l0.8494072407484055,-3.1602677702903748 1.6870349645614624,-3.1138643622398376 l1.6971802711486816,-1.9440150260925293 m6.301328539848328,9.1375732421875 l1.3923819363117218,-5.042968392372131 2.226472496986389,-4.690694212913513 l1.710253655910492,-2.108093649148941 m-18.13694477081299,13.481420278549194 l-0.3693065419793129,-1.0343318432569504 0.012518425937741995,-1.6198137402534485 l1.0680300742387772,-5.322330594062805 1.2250985205173492,-2.7636194229125977 m6.783599853515625,9.20674979686737 l1.800137460231781,-4.909461438655853 2.6734748482704163,-4.39752995967865 l2.0999181270599365,-1.9589568674564362 m-29.78663444519043,15.385037660598755 l-0.5103795230388641,-0.47155212610960007 -0.080062635242939,-1.2512579560279846 l1.029365211725235,-4.72085565328598 1.0628698766231537,-2.189052104949951 l1.9322428107261658,-2.6226642727851868 m4.3220254778862,11.701774597167969 l-0.1344191376119852,-1.1450190097093582 0.8283412456512451,-2.8749316930770874 l3.163721263408661,-6.919956207275391 2.4610574543476105,-3.3163490891456604 l2.2890646755695343,-1.8931403756141663 1.8496912717819214,-1.0423820465803146 l1.557595431804657,-0.5577191337943077 2.0052172243595123,-0.2803847938776016 l0.992710068821907,0.166116151958704 0.8117286115884781,0.5890370532870293 l0.7240074872970581,0.9506888687610626 0.5697380378842354,1.1956045776605606 l0.5884412303566933,2.237875312566757 0.31223032623529434,3.3214065432548523 l-0.5923811346292496,3.7338262796401978 -2.361229807138443,3.7910059094429016 l-4.507907330989838,4.834511578083038 -2.276272028684616,1.8688885867595673 l-1.4275062084197998,0.7700116187334061 -0.654100775718689,0.006606432143598795 l-0.1468223799020052,-0.29956331476569176 m-332.83777245436795,46.979376981274754 l0.6653536111116409,-4.639807641506195 0.18298674374818802,-5.53458034992218 l0.4719425365328789,-4.364650249481201 0.7355190813541412,-2.3020994663238525 l1.377604901790619,-1.6759584844112396 2.502545118331909,-1.4509478211402893 l3.0088582634925842,-0.8365927636623383 4.197902679443359,-0.43901532888412476 l5.176244378089905,0.10419591329991817 4.990106523036957,0.6629056483507156 l3.484276533126831,1.1315450072288513 2.1612100303173065,1.6512641310691833 l0.8219221234321594,1.1930597573518753 0.7080890983343124,2.271530032157898 l0.23638354614377022,2.82667338848114 -0.4244508221745491,4.629404842853546 l-0.9612227231264114,2.3824410140514374 -1.3430482149124146,1.9249138236045837 l-2.1038566529750824,1.3199703395366669 -3.192087411880493,0.8144038915634155 l-7.693172097206116,0.7550852745771408 -2.884712815284729,-2.9998379886819748e-05 l-6.155736446380615,-0.7898618280887604 -3.736824095249176,-1.0175806283950806 l-0.7948973774909973,-0.4369894042611122 m7.736423015594482,-18.24870467185974 l0.823107436299324,-8.287093043327332 0.04310221876949072,-3.3353951573371887 l0.32279282808303833,-1.1833533644676208 0.9046037495136261,-0.5529921129345894 l2.0659664273262024,0.04910083953291178 0.6095507368445396,0.5421952530741692 l0.3673245385289192,1.2288868427276611 -1.18051178753376,7.816711664199829 l-0.13725399039685726,3.8828426599502563 m5.73932409286499,-0.33254697918891907 l-0.1721787080168724,-6.5664613246917725 0.3768140822649002,-4.231413304805756 l0.32920390367507935,-1.2124782800674438 0.4774709790945053,-0.5941979587078094 l0.7064701616764069,-0.1146797277033329 2.1979936957359314,1.283528357744217 l0.7296612858772278,1.8614554405212402 -0.047154705971479416,3.189205229282379 l-1.3669559359550476,6.848211884498596 -0.012087973300367594,2.3199723660945892 m3.985178768634796,-1.2628722190856934 l0.9919470548629761,-7.707030773162842 0.8445636928081512,-3.6905264854431152 l0.40097951889038086,-0.5460996553301811 0.7543140649795532,-0.07676016539335251 l1.670192927122116,1.0418211668729782 0.835733637213707,2.2374919056892395 l0.04755659960210323,2.688818573951721 -1.2833523750305176,4.903326630592346 l-0.3171063959598541,3.0869638919830322 m-21.940064430236816,-13.39967966079712 l-0.26807770133018494,-1.277327537536621 0.26959478855133057,-1.3497886061668396 l0.6289638578891754,-1.5387287735939026 1.3260270655155182,-1.2081186473369598 l1.2166164070367813,-0.3716951981186867 0.691986009478569,0.4685334488749504 l0.5250295624136925,1.6226325929164886 -0.24733951315283775,2.263483554124832 l-0.8689814805984497,1.1664120107889175 -1.0947225987911224,0.6573940068483353 m8.074429035186768,-0.34040212631225586 l-1.3359832763671875,-3.2297351956367493 -0.028502698987722397,-1.6881582140922546 l0.9879738092422485,-1.3889718055725098 1.7502927780151367,-0.8967110514640808 l1.6180185973644257,0.11294993571937084 0.8966757357120514,1.3867305219173431 l0.1555329840630293,0.8336536586284637 -0.5717123672366142,2.5442561507225037 l-1.428496241569519,2.023497223854065 -1.1566319316625595,0.7626853138208389 m6.429336667060852,0.6316495686769485 l-0.2971593476831913,-0.9479162842035294 0.1545739360153675,-2.5080707669258118 l0.8296588063240051,-2.1840065717697144 1.2722623348236084,-1.5571348369121552 l1.3076283037662506,-0.5093299597501755 0.39956942200660706,0.8171965181827545 l0.13841613195836544,1.3102525472640991 -0.7214682549238205,2.733173668384552 l-1.3148391246795654,2.3407164216041565 -0.7566628605127335,0.8923529088497162 m-18.5591983795166,7.469305992126465 l-0.7473146170377731,-1.919410228729248 -0.07607111241668463,-2.5194960832595825 l0.5831926688551903,-2.20239982008934 0.9683927893638611,-0.7185683399438858 l1.8468675017356873,-0.28322624042630196 0.8071312308311462,0.3022279776632786 l0.7348236441612244,1.3524091243743896 0.025665718130767345,0.764855369925499 l-1.0659481585025787,2.4410150945186615 -1.28248929977417,1.7672109603881836 m75.73646486620419,8.458759841656729 l-0.06791966035962105,4.381760954856873 -0.12714103795588017,7.01626181602478 l0.6744126230478287,0.2852390520274639 4.745418727397919,0.000304741788568208 l5.066336989402771,0.6826256215572357 4.613041281700134,0.04213373176753521 l2.8955823183059692,-0.9140143543481827 0.8026660233736038,-0.6467726081609726 l0.8356571942567825,-2.312467098236084 0.4133744165301323,-5.41590690612793 l-0.14439436607062817,-3.783387839794159 -1.1893363296985626,-0.3855321556329727 l-3.9753076434135437,5.7696629482961725e-05 -9.641271233558655,0.22592805325984955 l-4.424718022346497,0.4680730029940605 m-0.20199572667479515,1.847757250070572 l1.67706698179245,0.8925608545541763 2.1153047680854797,0.430472195148468 l2.3069627583026886,0.0003059564915020019 3.074735999107361,-0.5833541601896286 l5.006779432296753,0.6120496988296509 4.077215790748596,-0.49950484186410904 l1.3603226840496063,-0.558389313519001 m-14.920926094055176,-3.2788631319999695 l0.06754900328814983,-1.1888309568166733 m4.888789653778076,1.164388731122017 l0.21850958466529846,-0.8327412605285645 m4.444652199745178,0.870058611035347 l0.3375983238220215,-1.334012746810913 m-8.517829179763794,1.9590777158737183 l-0.08648155257105827,-1.7531070113182068 m-3.8394394516944885,1.619495302438736 l-0.5391022935509682,-1.991732120513916 m10.557727813720703,0.0006571743870154023 l-0.021292457822710276,-0.1250158715993166 0.5077897384762764,-0.7340482622385025 l0.5034171417355537,0.015389592153951526 0.2382030338048935,0.27431782335042953 l-0.5199750885367393,0.09400254115462303 -0.772579088807106,-0.08526760153472424 m-7.409982085227966,0.811581164598465 l-0.4683680832386017,-0.5798864737153053 0.22062372416257858,-0.4600613936781883 l0.2815374545753002,0.590326339006424 -0.12099920772016048,0.06646627094596624 m0.42443014681339264,5.299785733222961 l-0.28011057525873184,-0.5941576510667801 0.16492869704961777,-1.1932480335235596 l0.5372865498065948,-0.22537950426340103 0.4086863622069359,0.9243930876255035 l-0.16516737639904022,0.6644756346940994 m1.329379826784134,1.2542498111724854 l-0.057194423861801624,-1.6123269498348236 0.23843277245759964,-0.3779605031013489 l0.3725738450884819,0.00022063801225158386 0.1349543035030365,0.6579615920782089 l-0.5602673068642616,0.5173921957612038 m1.040889024734497,-0.05924596916884184 l-0.13855529017746449,-1.3145188987255096 0.4327135533094406,-0.5871206521987915 l0.4350123181939125,0.3521207347512245 0.015222608344629407,0.6242913380265236 m2.6400047540664673,-0.05411108490079641 l-0.4312009736895561,-0.8633481711149216 0.18224118277430534,-1.2035936117172241 l0.750809833407402,-0.4339958727359772 0.5371657013893127,0.4215921089053154 l0.13014134019613266,0.8041449636220932 -0.5912106484174728,0.6669379770755768 m2.1514825522899628,-0.008160265279002488 l-0.35261858254671097,-0.8064719289541245 0.15883544459939003,-0.891602635383606 l0.9592993557453156,-0.4574456810951233 0.3669324889779091,0.4329331964254379 l0.05511404946446419,1.2887303531169891 -0.6892386823892593,0.5690419301390648 m-9.301449060440063,1.2239129096269608 l-0.43030183762311935,-1.3971003890037537 0.23683024570345879,-0.6022845581173897 l0.4948393628001213,0.00021139248929102905 0.19638791680335999,1.3029222190380096 l-0.2406323328614235,0.7533778250217438 m-2.5303569436073303,4.81860876083374 l0.8010218292474747,0.603361651301384 0.7500843703746796,-0.056670038029551506 l0.5547180026769638,0.3949849307537079 1.8823231756687164,-0.6721103191375732 l1.795651763677597,0.35596583038568497 2.234959751367569,-0.48057466745376587 l2.2035740315914154,0.03713758196681738 3.0304574966430664,0.1062005665153265 l1.088775098323822,-0.10557729750871658 m-16.593831777572632,2.3635371029376984 l1.19245283305645,-0.1271435245871544 3.634622097015381,0.6222027540206909 l3.14430832862854,-0.8723217248916626 1.7216238379478455,0.11995172128081322 l1.3491488993167877,0.5384929478168488 3.0561283230781555,0.000203035342565272 l2.301829755306244,-0.15053068287670612 m55.89416162692942,-13.110105276923605 l-0.46599075198173523,1.886918991804123 -0.3415357694029808,3.893684446811676 l-1.0372122377157211,9.3277108669281 0.14138505794107914,3.4951114654541016 l1.7575080692768097,0.2840046025812626 5.8621519804000854,0.0003482971078483388 l5.72526216506958,0.8582182973623276 5.822348594665527,0.19920092076063156 l5.56466817855835,-0.45290060341358185 3.2694104313850403,-0.8992425352334976 l3.2283151149749756,-1.706104427576065 1.9784845411777496,-2.0482660830020905 l0.5431429669260979,-1.1862514913082123 0.5814749374985695,-4.373182952404022 l-0.4939591884613037,-5.779129266738892 -0.7540178298950195,-2.6161569356918335 l-0.6722676008939743,-0.8503624051809311 -1.1643528193235397,-0.5953333526849747 l-2.8498944640159607,-0.40522392839193344 -4.195622205734253,0.01809353707358241 l-13.119674921035767,1.5597616136074066 -5.096173286437988,3.973319962824462e-05 l-4.35042679309845,0.07151441648602486 m2.8734183311462402,-2.915388345718384 l0.2186610922217369,0.7918992638587952 0.431005023419857,2.221657484769821 l0.11330045759677887,1.0163046419620514 0.364152230322361,0.9809696674346924 m6.004222631454468,-5.965713858604431 l0.19083421677350998,1.9210155308246613 1.0236243903636932,3.4808462858200073 m5.822340250015259,-5.8054715394973755 l0.7928583770990372,3.255067765712738 0.3235997259616852,1.4988842606544495 m5.913383960723877,-6.052032113075256 l0.46585962176322937,4.69328910112381 0.5895454064011574,0.7384493201971054 m-21.880760192871094,3.3309200406074524 l-0.14944767579436302,0.963851660490036 0.24858612567186356,1.5012475848197937 l0.5701000243425369,0.7452871650457382 1.3248583674430847,0.2992119640111923 l2.6373088359832764,-0.9553000330924988 1.50531604886055,-1.4239943027496338 l0.7032842934131622,-0.3834724798798561 1.037716120481491,0.15262176282703876 l1.4323855936527252,1.118691936135292 1.998177319765091,2.2043798863887787 l1.3070875406265259,0.696474090218544 1.8114851415157318,0.0002995112481585238 l2.222592830657959,-1.000976487994194 3.153022825717926,-2.366797626018524 l1.7054037749767303,-0.5658720806241035 1.2971901893615723,0.06173813249915838 l1.8992628157138824,1.2728013098239899 1.047765538096428,0.25406304746866226 l2.099877744913101,-0.5766361951828003 1.545465886592865,-1.5623243153095245 l0.9487874060869217,-0.552961453795433 m-27.61934518814087,0.3699618950486183 l2.759750485420227,0.6981900334358215 1.59408837556839,-0.025541798677295446 l3.5184958577156067,-1.841314435005188 1.7528820037841797,-0.29718754813075066 l2.0560307800769806,0.1533433049917221 3.050043284893036,1.0783419758081436 l1.7217129468917847,0.0707794213667512 2.4714313447475433,-0.5944136530160904 l2.2811442613601685,-0.032664870377629995 2.999494969844818,0.6136500835418701 l2.933565378189087,-0.20718764513731003 m-25.95679521560669,-0.9486443549394608 l3.9927810430526733,-0.19395174458622932 5.127013921737671,0.16429321840405464 l6.065587401390076,-0.809493288397789 3.186534345149994,-0.031740893609821796 l5.0294142961502075,0.16562113538384438 m-22.856299877166748,4.382596015930176 l2.4772243201732635,0.12982593849301338 7.431488633155823,-0.6638991087675095 l9.140874147415161,0.024195490404963493 5.296390652656555,-0.3794368728995323 m-26.365747451782227,6.2807804346084595 l9.848548769950867,-0.4782560467720032 8.862619400024414,-0.26189031079411507 l4.900206625461578,0.26994265615940094 2.2075052559375763,-0.2617785893380642 m-20.83247423171997,-14.168868064880371 l-0.19256221130490303,-2.548871338367462 -0.21988611668348312,-2.873810827732086 l0.8543885499238968,-0.5551132932305336 1.9908075034618378,-0.04923391621559858 l0.3873875364661217,0.4285883903503418 -0.10601225309073925,4.081656634807587 l-0.2918143570423126,2.114693820476532 m7.63658881187439,-1.433357447385788 l-0.17247404903173447,-3.6382734775543213 2.062564790248871,-0.8243472874164581 l0.40174178779125214,0.4461238905787468 -0.050444621592760086,4.332753121852875 m58.175901013892144,23.057845745490795 l-1.0090310871601105,-2.253308594226837 -0.627216249704361,-4.263826906681061 l-0.3370441868901253,-6.966044902801514 0.5624242499470711,-2.9738152027130127 l1.175858974456787,-1.6979354619979858 1.912669986486435,-1.2061437964439392 l2.2647547721862793,-0.5523161962628365 7.610991597175598,-0.37384938448667526 l4.453534483909607,0.34044474363327026 3.356247842311859,0.7555942982435226 l2.7792641520500183,1.0728994011878967 1.4938856661319733,1.0608338564634323 l1.0446766018867493,1.552196592092514 1.0217436403036118,2.6275116205215454 l0.7726747542619705,3.7329870462417603 0.14076586812734604,3.3378756046295166 l-0.664939284324646,4.099777638912201 -0.7234592735767365,1.2096765637397766 l-1.51828333735466,0.7364277541637421 -3.268156051635742,0.6569813191890717 l-7.402569055557251,0.059510101564228535 -4.022537171840668,-0.4476407915353775 l-7.78016984462738,-1.4680767059326172 -1.7514640092849731,-0.589137002825737 m2.7532541751861572,-17.615623474121094 l-0.1469254307448864,-2.6770126819610596 0.1135748066008091,-4.01942104101181 l0.29278116300702095,-1.4916841685771942 0.563441626727581,-0.8015886694192886 l2.1798183023929596,-0.6932112574577332 1.2186863273382187,0.1459426712244749 l1.3671249151229858,0.9697981178760529 0.6441649794578552,1.7604483664035797 l0.11075190268456936,3.0522531270980835 -0.43380260467529297,4.611022472381592 m5.758338570594788,-1.4460858702659607 l0.3703927993774414,-5.2026307582855225 0.9533144533634186,-3.7523287534713745 l1.0015062242746353,-2.0007315278053284 0.942201167345047,-0.5185374245047569 l1.5659499168395996,0.06531906314194202 0.5523255467414856,0.5204379186034203 l0.7981277257204056,1.5808257460594177 0.39515912532806396,2.6445358991622925 l-0.06338379811495543,2.890147566795349 -0.8987043797969818,3.967486321926117 m4.104527831077576,2.168468087911606 l0.7042582333087921,-5.79245388507843 1.2999263405799866,-3.790460228919983 l1.0923684388399124,-1.755494773387909 1.339728981256485,-0.4780500754714012 l0.8402474969625473,0.26298461481928825 1.1019839346408844,1.5236273407936096 l0.4107080027461052,1.4846479892730713 -0.04496606066823006,2.7753278613090515 l-0.8526158332824707,2.8424739837646484 -1.084776222705841,2.02728807926178 m-20.37731409072876,-8.686041235923767 l0.4683239758014679,-1.2050531804561615 1.1025787889957428,-2.9330414533615112 l0.7793120294809341,-2.9665011167526245 0.36661025136709213,-1.2401268631219864 l0.5982452630996704,-0.8433061838150024 1.1352552473545074,-0.793607234954834 l1.5959487855434418,-0.39647191762924194 0.8335144817829132,0.18512949347496033 l0.9039788693189621,1.3747169077396393 0.30508292838931084,2.46718168258667 l-0.8654048293828964,4.176782071590424 -0.7348388433456421,1.341240108013153 m7.839147448539734,-0.29174577444791794 l-0.47790098935365677,-1.3251695036888123 0.2459171786904335,-2.6217687129974365 l1.2892535328865051,-2.6134389638900757 1.1941041052341461,-1.352495402097702 l1.4194995164871216,-0.5321689322590828 1.3809868693351746,0.30212754383683205 l0.6715875864028931,0.7892176508903503 0.3006744757294655,1.9058857858181 l-0.11989030987024307,1.6302555799484253 -1.1227063089609146,3.0001193284988403 l-1.4659518003463745,2.1860113739967346 -1.0395988821983337,1.1264827847480774 m-18.475706577301025,1.4648032188415527 l-0.39162371307611465,-0.8416543155908585 -0.07852672599256039,-2.129915803670883 l0.5130455642938614,-2.108209878206253 1.1792660504579544,-1.5648290514945984 l1.5246793627738953,-0.829194039106369 2.1283435821533203,-0.1372856367379427 l0.8456274121999741,0.2638697437942028 0.9642459452152252,1.1155257374048233 l0.621095634996891,2.0280781388282776 0.03423486137762666,1.3561572134494781 l-0.5296025797724724,1.2935057282447815 -1.227995604276657,1.1809872090816498 l-1.5344354510307312,0.6964470446109772 -1.6252696514129639,0.11124886572360992 l-0.8579264581203461,-0.2590748108923435 -0.499846413731575,-0.5459953472018242 m74.07174396328628,3.0779580493526737 l1.5953429043293,-0.1263663824647665 5.09546160697937,0.18240245059132576 l10.341651439666748,-0.7119192183017731 5.773423910140991,0.2686898969113827 l3.7479472160339355,0.19464194774627686 2.054743468761444,0.40899861603975296 l1.509534865617752,0.6665250658988953 1.8745057284832,1.376449465751648 l0.8882450312376022,1.3271921873092651 0.12105743400752544,1.0805156826972961 l-0.7279708981513977,0.9980165213346481 -1.6841544210910797,0.8100059628486633 l-4.308454990386963,0.7254525274038315 -6.803815960884094,0.2797278016805649 l-10.811131000518799,0.00011283243111392949 -4.746542274951935,-0.7687708735466003 l-2.8233569860458374,-0.9413605183362961 -1.747368574142456,-1.1591607332229614 l-0.7037422806024551,-1.0067250579595566 -0.2334979735314846,-1.0354799032211304 l0.3890274837613106,-1.5243375301361084 1.307130604982376,-0.8159306645393372 l1.7281562089920044,-0.34683678299188614 m-3.75576913356781,2.8941133618354797 l-0.1528519205749035,2.408052682876587 -0.18966678529977798,9.345077276229858 l0.5545919761061668,2.8080886602401733 0.9292449057102203,1.9098582863807678 l2.1725063025951385,1.0533256083726883 4.2177000641822815,1.1742288619279861 l6.958939433097839,0.6056757643818855 7.493897080421448,0.00012063417671015486 l4.487314522266388,-0.7034445554018021 4.179027080535889,-1.4082106947898865 l2.910325825214386,-2.0955121517181396 1.0057809203863144,-1.3707952201366425 l0.6230363994836807,-2.479519098997116 -0.025237686932086945,-6.251923441886902 l-0.35500988364219666,-1.4043723046779633 -1.474595069885254,-2.3459492623806 m-21.915524005889893,-0.8221232146024704 l-0.5340226367115974,-6.1503225564956665 0.12940600514411926,-3.020302653312683 l-0.06518358364701271,-2.17480406165123 0.9468844532966614,0.1049953605979681 l0.43494269251823425,0.9312614053487778 0.21516762673854828,6.901698708534241 l0.08471284992992878,1.8236540257930756 0.1277526468038559,1.5093830227851868 m6.284888386726379,0.04409062676131725 l0.04828652832657099,-5.8847081661224365 0.14742828905582428,-5.695862770080566 l0.5555891245603561,-0.2505884878337383 0.38471680134534836,0.2278505451977253 l0.5196740105748177,1.6733157634735107 0.237771924585104,8.853558897972107 l0.2654912695288658,1.1318836361169815 0.33578384667634964,0.3043720871210098 m4.058485627174377,-0.3351537510752678 l0.15914587303996086,-5.379999279975891 -0.4080938920378685,-5.336927175521851 l0.1489017903804779,-1.0565517842769623 0.4509430378675461,-0.06235804874449968 l0.9544382989406586,1.8165825307369232 0.5974681302905083,3.10790479183197 l0.03613912733271718,4.771990776062012 -0.09960410185158253,1.5314330160617828 m-14.870179891586304,-4.972761273384094 l-0.8442600071430206,-1.261545866727829 -0.5324764922261238,-2.548832893371582 l0.11961800046265125,-2.3524388670921326 0.547899566590786,-1.6781647503376007 l0.7166873663663864,-0.985046923160553 0.6307137757539749,0.00024363311240449548 l0.6599274277687073,1.8846379220485687 0.2387218363583088,3.4734943509101868 l0.17250385135412216,2.544107735157013 m4.794873297214508,-1.092851459980011 l-0.617312453687191,-0.9339148551225662 -0.2531900070607662,-1.811007708311081 l0.44156089425086975,-2.301628887653351 0.9651803970336914,-1.283939778804779 l0.4791409894824028,-0.012322403490543365 0.7574994117021561,1.2053576856851578 l0.25304000824689865,2.4993325769901276 -0.1392668206244707,1.8223166465759277 m5.25732159614563,-1.1429441720247269 l-0.3958791121840477,-1.706334501504898 0.1697835698723793,-1.5691237151622772 l0.9488718211650848,-1.339028775691986 1.1266321688890457,-0.37932179868221283 l0.709197074174881,0.3767867758870125 0.5846686661243439,1.3156665861606598 l0.2624046802520752,1.5326866507530212 -0.08025363087654114,1.7749308049678802 l-0.6273709982633591,1.2464682012796402 m-21.029458045959473,8.598347902297974 l-0.8809550851583481,-0.9654852747917175 -0.4900074750185013,-1.4798831939697266 l0.13287555426359177,-2.0517265796661377 m-324.2066730587976,63.180183660824696 l0.058976118452847004,5.733646750450134 0.016997525235638022,7.2846949100494385 l0.4235570877790451,1.685730665922165 4.296795129776001,0.8916163444519043 l6.8578338623046875,0.4947609454393387 4.617845714092255,0.00010205900252913125 l5.735485553741455,-0.5395714193582535 1.3377413153648376,-0.43117307126522064 l0.6819382309913635,-0.6857557594776154 0.6743649393320084,-7.702727913856506 l-0.07075883448123932,-8.059354424476624 -0.30184702947735786,-1.0220589488744736 l-0.6253682076931,-0.5248726531863213 -2.1413545310497284,-0.5586300417780876 l-4.427837133407593,-0.14230242930352688 -7.927759289741516,0.6506592035293579 l-8.70516300201416,1.1143136769533157 -0.7340443879365921,0.7628259062767029 m1.3833308219909668,1.692824363708496 l1.8870800733566284,0.7289557904005051 1.5742138028144836,0.210527665913105 l5.069707632064819,-0.23535232990980148 3.8919955492019653,-1.0167935490608215 l3.1928011775016785,-0.17414044588804245 5.607341527938843,-0.41929803788661957 l2.064814120531082,0.21864376962184906 m-24.935336112976074,6.898213028907776 l1.9148854911327362,0.3188226744532585 7.085552215576172,-0.10891586542129517 l9.17560338973999,-1.007603108882904 5.908522009849548,0.2261054515838623 l1.5671306848526,-0.20675675943493843 m-22.61892318725586,-4.561359882354736 l2.7370765805244446,0.3039572015404701 7.221505045890808,0.3984241560101509 l7.589889168739319,0.08784371428191662 3.1497761607170105,-0.7635233551263809 m-18.529982566833496,3.0112528800964355 l3.705756366252899,0.8123048394918442 5.566011071205139,0.29799172654747963 l3.9978140592575073,-0.42909301817417145 3.3636707067489624,-0.9593964368104935 m-17.13794708251953,-2.1376799046993256 l3.94977867603302,1.1434205621480942 5.0952476263046265,0.6640084832906723 l6.948667764663696,0.0002217540895799175 4.164518117904663,-0.5845995619893074 m-20.392048358917236,-3.7288573384284973 l2.4321919679641724,0.8955778926610947 4.097535014152527,0.8207558840513229 l4.88317608833313,0.39898160845041275 4.956075847148895,-0.2525557577610016 l3.9010927081108093,-0.8913148939609528 m-18.31960439682007,2.149161249399185 l2.56195604801178,1.0846610367298126 1.4258448779582977,0.4837341234087944 l3.6741384863853455,0.3360151872038841 5.991314649581909,-0.14532605186104774 l3.0574634671211243,-0.7930309325456619 m-15.559701919555664,-7.690982818603516 l0.13791375793516636,-5.255724191665649 0.3932419419288635,-2.0152485370635986 l0.8365218341350555,-1.3922840356826782 1.5331993997097015,-0.6750714033842087 l0.40571026504039764,0.33182293176651 0.6176601722836494,2.4728187918663025 l-0.29664067551493645,6.052389144897461 0.22777637466788292,1.0659918934106827 m4.316780865192413,-0.9027738124132156 l0.11024740524590015,-4.789186716079712 0.7238171249628067,-2.9361888766288757 l0.4573269560933113,-0.6180045381188393 2.65293687582016,0.18047228455543518 l0.5939518287777901,0.7705768197774887 0.20661452785134315,2.011581063270569 l-0.7460616528987885,7.226869463920593 -0.009130575926974416,0.41272643953561783 m3.102796971797943,-0.8412956446409225 l0.6055065989494324,-4.161176085472107 0.9974060207605362,-4.988669753074646 l0.4551986977458,-0.21845990791916847 1.9780761003494263,0.45805513858795166 l0.4449976235628128,0.7556309551000595 0.0762195372954011,2.1844972670078278 l-1.5679030120372772,5.886815190315247 -0.23451769724488258,1.657894253730774 m-0.48510268330574036,-11.492819786071777 l-0.18549086526036263,-2.4810346961021423 0.3083674982190132,-1.4284580945968628 l0.6506320834159851,-0.7184342294931412 1.5776439011096954,-0.5703450366854668 l0.44134192168712616,1.97462797164917 -0.7647702842950821,2.9645490646362305 l-0.8967917412519455,1.8157640099525452 m-11.328229904174805,-1.5774331986904144 l-0.3859560936689377,-1.0075587779283524 0.08334323763847351,-1.2436267733573914 l0.38586363196372986,-1.1283279210329056 0.9970138967037201,-1.2067193537950516 l1.2414545565843582,-0.5739795416593552 m63.17699197039474,18.118974986791727 l0.007704767631366849,2.197335958480835 -0.3210185468196869,4.253415167331696 l0.20982017740607262,6.470515131950378 2.483397424221039,0.12146295979619026 l9.61039423942566,0.0003563051359378733 9.241629242897034,1.0043889284133911 l4.785820245742798,0.00013867643247067463 0.3487900272011757,-0.5482340604066849 l0.4450739920139313,-8.819418549537659 0.49029506742954254,-5.84743857383728 l-2.0453497767448425,-0.3279166668653488 -15.828059911727905,0.8541075140237808 l-6.818616986274719,0.29642537236213684 -2.17106357216835,-0.21890494972467422 m3.702079951763153,0.12469584122300148 l-0.09962989017367363,-6.905689835548401 0.47814980149269104,-0.38615990430116653 l4.260434806346893,-0.16878681257367134 6.8709564208984375,-0.5482729524374008 l5.1933205127716064,-0.4311951994895935 1.3137263059616089,0.31303897500038147 l0.21409783512353897,0.5922175943851471 -0.18995512276887894,2.6197004318237305 l-0.41766099631786346,4.549993574619293 m-14.13532018661499,-6.8805992603302 l-0.34342437982559204,-2.5200018286705017 0.21558966487646103,-3.4811222553253174 l0.5552758648991585,-0.31524036079645157 5.507749915122986,-0.17840584740042686 l3.7131646275520325,-0.46622496098279953 0.25205137208104134,2.813132405281067 l0.3049350343644619,3.209681808948517 m-7.33917236328125,-5.542699098587036 l-0.19887510687112808,-2.7167904376983643 -0.0273671792820096,-2.22110852599144 l0.27109313756227493,-0.31370416283607483 1.427585631608963,0.00015268649804056622 l0.28362082317471504,0.5377525091171265 0.5821337550878525,3.861374855041504 l0.3734232112765312,0.762915313243866 m-2.350561171770096,-5.133933424949646 l-0.316808819770813,-0.5475857853889465 0.024807564914226532,-0.7589532434940338 l0.5154700949788094,-2.376028150320053 0.2130497246980667,-0.24130621924996376 l0.770249143242836,0.5187004059553146 0.3294895216822624,0.822637677192688 l0.04211046267300844,1.1322177946567535 -0.2588820457458496,0.7136061042547226 m-6.6104656457901,6.598412394523621 l-0.31153734773397446,-0.632677897810936 -0.4244726896286011,-2.241702675819397 l-0.3610584884881973,-1.186891496181488 0.08448268286883831,-0.6580078601837158 l0.6610947102308273,0.0003230272704968229 0.4667724296450615,0.4124501720070839 l0.03859360469505191,0.7386136054992676 m4.388217926025391,7.104742527008057 l-0.3063977509737015,-3.9613285660743713 -0.27592770755290985,-1.2739375233650208 l0.1712225377559662,-0.7349304854869843 0.81077441573143,-0.3742038831114769 l0.29501665383577347,0.5238055065274239 0.02687070518732071,0.8305202424526215 l-0.650540292263031,0.3985559195280075 m-2.510257661342621,7.859935760498047 l0.9233924001455307,0.09173039346933365 1.135704517364502,-0.34112174063920975 l3.435664474964142,-1.0887230932712555 2.0044417679309845,0.1419941894710064 l2.2680625319480896,0.6907697767019272 2.7133211493492126,-0.1773947849869728 l1.9852524995803833,0.5057128518819809 m-14.838175773620605,4.538838863372803 l0.15425283461809158,-0.5286594852805138 1.22139573097229,-0.6039289012551308 l3.0337056517601013,-0.30743764713406563 1.4932551980018616,0.3052915446460247 l2.0129720866680145,1.3268354535102844 1.3168525695800781,0.21520281210541725 l1.894589513540268,0.00015788085875101388 1.7082661390304565,-0.7737597823143005 l1.4891891181468964,-0.1922459527850151 1.214425414800644,0.34133337438106537 m-15.647139549255371,2.4978362023830414 l1.1739365011453629,-0.09683797135949135 1.6362237930297852,0.26066845282912254 l2.693474292755127,-0.48175185918807983 2.1439801156520844,0.42358681559562683 l2.061237096786499,-0.44725771993398666 1.313854455947876,0.38032427430152893 l1.7203593254089355,0.0001434950354450848 2.2579528391361237,0.0002644277446961496 l1.873031109571457,-0.14324345625936985 m-19.427945613861084,5.596792697906494 l1.3694281876087189,-0.625818744301796 1.942605972290039,-0.27426522225141525 l2.3597751557826996,0.636366605758667 3.2630783319473267,-0.4495811089873314 l2.8423097729682922,0.08489896543323994 m59.458652577595785,-10.008394483347729 l-0.26261674240231514,3.016180098056793 -0.3911837562918663,6.324399709701538 l0.18071940168738365,3.6169546842575073 0.65958671271801,1.8534539639949799 l1.5685686469078064,1.974901556968689 2.233060598373413,1.403321623802185 l3.4748321771621704,1.065405234694481 4.605284631252289,0.6209432706236839 l5.577298998832703,0.09375561960041523 4.789396822452545,-0.6002272292971611 l4.310814142227173,-1.4364302158355713 3.948233425617218,-2.112111449241638 l2.344815284013748,-2.4336768686771393 1.9035424292087555,-3.1801551580429077 l0.4204083979129791,-2.8103643655776978 -0.30497225001454353,-4.194779694080353 l-0.9568346291780472,-2.5322479009628296 -1.8118998408317566,-1.5474501252174377 l-1.5558461844921112,-0.7832957804203033 -2.7971965074539185,-0.7667828351259232 l-4.975285232067108,-0.5077968165278435 -8.971632719039917,0.4382319748401642 l-10.665853023529053,1.7138057947158813 -1.5019167959690094,0.5255991965532303 m3.403097987174988,-6.116007566452026 l-0.21422486752271652,3.1559133529663086 0.3386051580309868,1.5455786883831024 l0.5661297217011452,0.5216533690690994 1.5863920748233795,-0.2611907385289669 l2.6759961247444153,-1.466185450553894 1.498841643333435,-0.5279285833239555 l2.540457546710968,-0.9989722073078156 1.4880050718784332,-0.323595255613327 l1.53031125664711,-0.581827387213707 2.2231513261795044,-1.1373767256736755 l1.8159520626068115,-0.6348646432161331 0.9194096177816391,-0.5427942425012589 l1.2071041017770767,-1.46730437874794 0.5194983631372452,-1.8400649726390839 l-0.2608095668256283,-0.8476005494594574 -1.0833287984132767,-1.2227455526590347 l-1.3945667445659637,-0.6244370713829994 -3.2141992449760437,-0.5643939226865768 l-4.219579696655273,0.13969963416457176 -3.0040234327316284,1.0797420144081116 l-3.759760856628418,2.318687289953232 -1.8070141971111298,1.8913131952285767 l-0.9973333775997162,2.017839401960373 -0.12545865960419178,1.4631159603595734 l0.4195565730333328,1.1805754154920578 0.797201544046402,0.8390174061059952 l1.757073700428009,0.8504786342382431 2.397507429122925,0.5079248920083046 l3.874376118183136,0.10836693458259106 3.2015419006347656,-0.6140297278761864 l2.33254611492157,-0.901615172624588 2.9421737790107727,-1.7175890505313873 l1.4984895288944244,-1.4717207849025726 1.1129634827375412,-2.0979493856430054 l0.2925935573875904,-2.27248951792717 -0.40812578052282333,-0.7661020755767822 l-0.9475398808717728,-0.6799661368131638 -2.6643916964530945,-1.0533329099416733 l-3.8501152396202087,-0.5881352350115776 -4.665896892547607,0.13186938129365444 l-2.8214040398597717,1.0771534591913223 -3.388931155204773,2.0329707860946655 l-1.3129337131977081,1.2132451683282852 -0.7985354214906693,1.614135354757309 l-0.1837240718305111,1.8338419497013092 0.5016075447201729,1.5383897721767426 l1.185157224535942,1.3745875656604767 2.5041013956069946,1.235298216342926 l3.776083290576935,0.6803780049085617 4.783913493156433,-0.05629817023873329 l4.798857867717743,-1.072423979640007 2.623565196990967,-1.4266160130500793 l1.8074139952659607,-1.460840255022049 1.161973625421524,-1.884889006614685 l0.10946616530418396,-2.136133313179016 -0.44512372463941574,-1.058809608221054 l-1.6073794662952423,-1.2651629745960236 -2.7626031637191772,-0.9377177804708481 l-3.422599136829376,-0.3682980313897133 -3.6718660593032837,0.19282808527350426 l-2.433609515428543,1.123320832848549 -1.5637171268463135,1.2799370288848877 l-2.158529907464981,2.685476541519165 -0.8286073803901672,1.6442903876304626 m2.533172369003296,1.2307831645011902 l-0.6551072746515274,-4.095667898654938 -0.917089581489563,-5.6905823945999146 l-0.22871756926178932,-2.6258185505867004 m6.589882969856262,11.943246126174927 l-0.2784581854939461,-2.6594531536102295 -0.5518925189971924,-8.604890704154968 m6.022264361381531,9.909417033195496 l0.40950264781713486,-4.6945273876190186 0.6277874112129211,-5.567420721054077 m3.0020663142204285,10.210422277450562 m61.53102325566579,17.015952977335473 l-0.20891815423965454,8.264572620391846 0.40420398116111755,2.3698483407497406 l0.4678824543952942,0.4402291029691696 1.8273116648197174,0.08626856841146946 l7.893562912940979,-1.18117555975914 3.6262288689613342,-0.021128139924257994 l5.082252025604248,0.00023735783543088473 0.35552721470594406,-0.5714553594589233 l-0.07496325299143791,-9.56408679485321 -0.5532486364245415,-0.4831133410334587 l-7.996786832809448,-0.06559527479112148 -9.249830842018127,0.33050786703824997 l-1.4485809206962585,0.43050505220890045 0.19614290446043015,0.20887479186058044 m3.4649214148521423,-1.0769107192754745 l-0.17423346638679504,-3.2997387647628784 0.4836763069033623,-2.82653272151947 l5.963554382324219,-0.17917724326252937 3.546636402606964,0.1463174819946289 l0.6848729401826859,1.527453064918518 0.23767350241541862,5.047045946121216 m-7.459474205970764,-6.998969912528992 l-0.14223300851881504,-3.0430442094802856 0.48497840762138367,-0.7265086472034454 l2.1364974975585938,-0.2471761591732502 2.005801796913147,0.034455417189747095 l0.16291413456201553,2.590915858745575 -0.18956584855914116,1.2231626361608505 m-4.351060688495636,-2.539508640766144 l-0.16029832884669304,-2.745312452316284 -0.046997442841529846,-1.198694109916687 l0.30978327617049217,-0.5037187039852142 2.071619927883148,-0.2739565446972847 l0.2746395021677017,0.6607796251773834 -0.15145914629101753,3.2110363245010376 l0.030734818428754807,0.7639755308628082 m-1.7346683144569397,-4.482786953449249 l-0.04616481252014637,-2.395547181367874 0.6590086221694946,-0.9108158200979233 l0.49250971525907516,0.27870601043105125 0.08045594207942486,2.8588002920150757 l0.01673958613537252,0.8274056762456894 m-2.362373471260071,4.704958498477936 l-0.187284667044878,-2.0787563920021057 0.15038099139928818,-1.9251568615436554 l0.5808478593826294,-1.17533840239048 1.299101561307907,-0.62234066426754 l0.37213563919067383,0.37208694964647293 0.15792202204465866,0.8600430935621262 l-0.12229905463755131,3.836206793785095 -0.11939889751374722,1.0901468992233276 m-1.0989123582839966,-5.622762441635132 l-0.43768495321273804,-2.47432217001915 0.20581595599651337,-1.1158057302236557 l0.6932498514652252,-0.4659835621714592 0.7334167510271072,0.6949032098054886 l0.26424214243888855,0.9781011193990707 -0.12503055855631828,0.9123891592025757 m1.2844233214855194,4.295821189880371 l0.24490658193826675,-2.837182581424713 0.6527271121740341,-0.9507187455892563 l0.4261879622936249,-0.04557703621685505 0.20204570144414902,0.49915861338377 l-0.09166565723717213,3.132583200931549 m-0.6651608645915985,-3.5394495725631714 l-0.22939154878258705,-1.0689608752727509 0.18969545140862465,-1.1247318238019943 l0.711507722735405,-0.5607328191399574 0.5665025860071182,0.14260263182222843 l0.2382063865661621,1.318032592535019 -0.24372773244976997,0.9419430792331696 m-8.788891434669495,17.85587787628174 l0.5296025052666664,0.7562633603811264 1.1052989959716797,0.40798790752887726 l2.3951736092567444,0.0002583855530247092 2.417648881673813,0.24212153628468513 l2.8410708904266357,-0.6101390719413757 2.2842994332313538,-1.2904386222362518 l1.4703787863254547,-0.11322245001792908 1.7620135843753815,0.00019569835785659961 l2.1279625594615936,0.023627697955816984 m-17.537518739700317,3.9987733960151672 l0.6839200109243393,0.6430964171886444 1.0468727350234985,0.2828814275562763 l2.6057496666908264,-0.3125862777233124 2.6589471101760864,-1.1129499226808548 l1.8531681597232819,-0.20463773980736732 1.273627132177353,0.40127821266651154 l2.348797619342804,1.3683557510375977 1.3282552361488342,0.2210312895476818 l1.8889331817626953,-0.5687170475721359 1.7177766561508179,-1.0768958181142807 l1.2845875322818756,-0.09985133074223995 1.3036878407001495,0.00014536191883962601 m-19.571975469589233,-0.8305443078279495 l1.686241626739502,0.7915224134922028 1.4261959493160248,0.03219293663278222 l2.7865099906921387,-1.2650351226329803 1.0228091478347778,-0.017432771855965257 l1.6260887682437897,0.0002543279333622195 m67.53565911494661,-8.624368642904301 l-0.028804445173591375,5.441630482673645 -0.38824908435344696,8.652251958847046 l2.47590571641922,0.5076766386628151 10.848382711410522,1.1564847081899643 l6.702160835266113,0.00015368852473329753 4.127207100391388,0.6436793506145477 l0.23626208305358887,-1.9516579806804657 0.2608589082956314,-7.987973093986511 l0.44818662106990814,-4.7757455706596375 -2.77599036693573,-0.8585591614246368 l-5.750296711921692,-1.33556067943573 -4.078996777534485,-0.30739709734916687 l-5.977175831794739,6.308825504675042e-05 -5.022243857383728,-0.04392446484416723 l-1.2808126211166382,0.35253316164016724 m5.929454565048218,-0.6412758678197861 l-0.005256809527054429,-6.191274523735046 0.02378137083724141,-0.5440090596675873 l0.6949268281459808,0.00011344173799443524 3.689533770084381,0.4106301814317703 l4.080246388912201,0.3137752041220665 2.719618082046509,0.42540479451417923 l0.04360716789960861,1.2361973524093628 -0.4555857181549072,4.428018033504486 m-7.245612740516663,-7.176643013954163 l0.021041028667241335,-3.143981695175171 0.5818651616573334,-2.1334965527057648 l2.5321203470230103,0.4395563155412674 2.339867353439331,0.522102452814579 l0.2543434500694275,0.38385670632123947 -0.9741435945034027,4.509529173374176 l-0.12002591043710709,1.4424759149551392 m-1.828707754611969,-7.106325030326843 l0.041861506178975105,-3.095429837703705 0.5498760566115379,-3.1832942366600037 m0.8922646939754486,6.891218423843384 l0.47392915934324265,-2.28053018450737 1.6854000091552734,-3.4090378880500793 m-6.158305406570435,8.391423225402832 l0.13381334021687508,-1.3636989891529083 1.018761396408081,-2.204197496175766 m5.042164921760559,4.215710759162903 l0.9619899094104767,-1.5299640595912933 2.287825495004654,-2.129456251859665 m-9.189631938934326,4.350500702857971 l-0.6612315028905869,-1.8364033102989197 -0.25538232177495956,-2.8086841106414795 m-1.0688555985689163,2.6346218585968018 l-0.3544297441840172,-0.2512856014072895 -0.4619934782385826,-0.990387350320816 l-0.6589928269386292,-2.8324198722839355 m-0.2686973102390766,5.126131772994995 l-0.3223913535475731,-0.7138000428676605 -0.08700860664248466,-1.8888972699642181 m0.1655893214046955,2.3771916329860687 l0.06633795332163572,-1.318591684103012 0.6695132702589035,-1.9699391722679138 m2.2592002153396606,3.984992802143097 l0.3501478582620621,-2.8972584009170532 1.0641306638717651,-2.179349809885025 m2.3876358568668365,4.39126193523407 l0.7853521406650543,-3.2841548323631287 1.0754947364330292,-1.6701048612594604 m1.073937863111496,4.189645051956177 l0.617213286459446,-2.837209403514862 m0.8312544971704483,2.9728147387504578 l1.411982774734497,-2.132783830165863 m0.3382701799273491,2.6750996708869934 l1.1809767037630081,-1.6163578629493713 m-1.0597681999206543,1.394759863615036 l1.677810400724411,-1.0624661296606064 m0.27931297197937965,2.386617362499237 l0.8029141277074814,-1.1913367360830307 m-1.3467995822429657,1.226068139076233 l0.9399852901697159,-0.35799458622932434 m-0.5108761042356491,1.2581026554107666 l0.7068590819835663,-0.12004711665213108 m-0.7237669825553894,0.736926719546318 l-0.25744475424289703,0.00041693092498462647 m-1.6253963112831116,-1.2620769441127777 l-0.28979288414120674,8.750711458560545e-05 m-0.48222023993730545,-0.2685629017651081 l-0.38662806153297424,0.00011447086762927938 m-1.9353289902210236,-0.95639668405056 l-0.20929595455527306,0.00013745798241870943 m-1.2981100380420685,0.047800117172300816 l-0.32247070223093033,0.00026898373107542284 m-2.1349555253982544,-0.4523871839046478 l-0.2438821643590927,0.00040518923924537376 m-3.116656243801117,0.7202284038066864 l-0.3111928328871727,0.00010003453098761383 m-1.346818059682846,0.08394552394747734 l-0.17133697867393494,0.0002092009162879549 m-0.8429922163486481,1.3621854782104492 l-0.044471025466918945,0.00019907847672584467 m-0.09615813381969929,-0.7758326828479767 l-0.037027986254543066,0.00016817613868624903 m0.6972061097621918,-0.40899399667978287 l-0.132794426754117,0.0002400137782387901 m-0.16111617907881737,0.13696535490453243 m-330.65302919014357,54.432796714545475 l0.5205737799406052,6.998652815818787 0.6221510097384453,5.552652478218079 l1.0361865907907486,3.9799118041992188 0.9151522070169449,1.8715482950210571 l1.3520333170890808,0.9971635788679123 3.5404863953590393,0.9855649620294571 l6.160914301872253,0.5946991592645645 8.932702541351318,0.10056150145828724 l6.649901270866394,-0.4056761786341667 3.6701184511184692,-0.8415314555168152 l1.0530225187540054,-0.5706844478845596 1.0397977381944656,-2.0659059286117554 l0.5510639399290085,-3.6368265748023987 -0.17112452536821365,-8.281923532485962 l-0.695728212594986,-5.480856895446777 -0.849694162607193,-2.3020200431346893 l-1.0265512764453888,-1.0075319558382034 -2.507188618183136,-0.391339547932148 l-8.795861005783081,0.5434279516339302 -8.657388091087341,-0.23531613871455193 l-5.487281680107117,0.4516792669892311 -6.162689924240112,1.3566124439239502 l-2.0808109641075134,0.9070351719856262 -0.7753343135118484,0.6834591180086136 l-0.1534003857523203,0.8874091506004333 0.5448944866657257,1.3170741498470306 l0.8313406258821487,0.8451039344072342 2.592022120952606,1.302463412284851 l2.8907227516174316,0.8160058408975601 3.870301842689514,0.44992711395025253 l6.96990966796875,-0.08993852883577347 6.460210680961609,-0.752360075712204 l5.710142254829407,-1.2888309359550476 2.743496000766754,-1.0791870206594467 l2.0350761711597443,-1.3672906160354614 0.7349444925785065,-1.4311173558235168 l-0.1811758056282997,-1.2609995901584625 -0.6697209924459457,-0.8697213977575302 m-28.59776258468628,1.6455453634262085 l-0.0988482404500246,-3.662479519844055 -0.6301675736904144,-3.4593993425369263 m7.372812628746033,6.606114506721497 l-0.21195517852902412,-4.567669928073883 0.3835204988718033,-3.4230732917785645 m7.208881974220276,6.412635445594788 l0.07801259867846966,-5.74701189994812 0.5955490097403526,-2.756539285182953 m6.723473072052002,8.923828601837158 l-0.1484489068388939,-1.6090334951877594 0.5844548717141151,-3.9113131165504456 l1.345658153295517,-3.6654132604599 m4.395112097263336,9.538443684577942 l0.6118671968579292,-5.844472646713257 1.1169281601905823,-3.409213125705719 m-14.430177211761475,13.972193002700806 l0.039999838918447495,-3.6237284541130066 0.9720412641763687,-4.234799444675446 m-9.166451096534729,8.732920289039612 l-0.5079548433423042,-1.0643599182367325 -0.10653632692992687,-1.9027099013328552 m7.45002806186676,3.4402459859848022 l0.4275194928050041,-1.8560609221458435 1.855117380619049,-3.3263197541236877 m5.884918570518494,4.215613603591919 l1.0531772673130035,-2.377878874540329 2.372841387987137,-2.6660773158073425 m1.1730530858039856,3.687218725681305 l1.4557121694087982,-2.3054127395153046 2.386324107646942,-1.7807959020137787 m-15.584008693695068,8.626817464828491 l0.2698861062526703,-3.1497174501419067 0.9368651360273361,-3.1764015555381775 m-6.381097435951233,8.355631828308105 l-0.3816118463873863,-1.120322048664093 -0.15106964856386185,-2.6355957984924316 m-6.377186179161072,4.7250401973724365 l-0.4227104038000107,-1.450762152671814 0.13279435224831104,-1.3392487168312073 m-4.923712909221649,5.918413400650024 l-0.3439958766102791,-0.2132507972419262 -0.13680647127330303,-1.7090322077274323 m-0.5100881680846214,4.472773373126984 l-0.5804174765944481,-0.29995355755090714 -0.6705190241336823,-1.1375491321086884 m1.823934018611908,2.6501110196113586 l0.0093308393843472,-1.3476720452308655 0.24103878065943718,-2.2295506298542023 m4.682757556438446,3.3695068955421448 l0.1501546148210764,-2.6722925901412964 0.7569283992052078,-0.5327729508280754 m1.7206259071826935,3.400999903678894 l0.8132146298885345,-2.5690943002700806 1.2933868169784546,-0.24352189153432846 m3.1883716583251953,2.2198109328746796 l0.49847327172756195,-2.3222538828849792 1.6769474744796753,-0.00796195468865335 m2.569316327571869,0.8920250833034515 l1.5802627801895142,-1.812424212694168 1.6552498936653137,-0.6989336758852005 m3.005819320678711,1.9409014284610748 m59.97492418857291,-6.388427050464998 l-0.17670908942818642,4.958029091358185 0.256864745169878,6.958791613578796 l8.084046244621277,-0.14160542748868465 6.272455453872681,0.3057732991874218 l4.875166118144989,0.00023534148567705415 3.1951120495796204,-0.5812045931816101 l0.2684302069246769,-1.7633263766765594 -0.20221179351210594,-7.789110541343689 l0.29619624838232994,-3.1252673268318176 -2.5546851754188538,-0.36174848675727844 l-14.057003259658813,0.9398762881755829 -5.642017722129822,0.40969371795654297 l-0.7537880539894104,-0.08644687011837959 m3.5032448172569275,-0.530627928674221 l0.10111115872859955,-4.905222952365875 0.4976226016879082,-0.39528336375951767 l2.7339908480644226,7.975032531248871e-05 11.165435314178467,0.007142493850551546 l0.3313033655285835,0.6093693897128105 -0.07614383939653635,3.896498382091522 m-11.24179720878601,-4.896119832992554 l-0.06860950961709023,-1.802094578742981 0.2731500193476677,-1.3530096411705017 l2.203702926635742,0.17633149400353432 3.9470088481903076,0.14926988631486893 l0.39546042680740356,0.5290373414754868 0.19606849178671837,3.2936418056488037 m-4.462851583957672,-3.5258299112319946 l-0.2940663509070873,-2.2789792716503143 0.25582265108823776,-2.479223757982254 l0.586620382964611,-0.18789896741509438 1.571861058473587,0.2910041995346546 l0.3281492367386818,0.44692955911159515 -0.4947149008512497,3.7604644894599915 l-0.0944022461771965,0.5027370527386665 m-0.7005329430103302,-5.076833963394165 l-0.41704539209604263,-2.483665496110916 0.17020316794514656,-1.1913350224494934 l0.8937668800354004,0.9069334715604782 0.3418281301856041,0.54572943598032 l0.23158418014645576,0.4386657476425171 -0.08600092492997646,0.25435173884034157 l-0.5374264344573021,0.6463984400033951 -0.4109412431716919,-0.08722582831978798 l-0.07907086983323097,-0.27695372700691223 0.2813229523599148,-0.5478246510028839 l0.08143344894051552,-1.0282102972269058 -0.01391461119055748,0.37951067090034485 l-0.4596775397658348,0.7050035893917084 0.13925396837294102,-0.3502488508820534 l0.07755385246127844,-0.42549479752779007 0.2751011960208416,-0.43860524892807007 l0.13278985396027565,-0.1882740668952465 -0.5723027139902115,0.1001620665192604 l-0.03504914231598377,-0.24584053084254265 0.21988948807120323,-0.3650309890508652 l0.004885172238573432,0.3980351984500885 -0.19835978746414185,-0.07432722952216864 l0.16036557033658028,-0.44665660709142685 0.05203474313020706,-0.13228913769125938 l0.23117879405617714,0.1140179205685854 0.09164975956082344,0.38094162940979004 l-0.13961225748062134,0.20953968167304993 -0.28760073706507683,-0.26154499500989914 l0.009295750642195344,-0.5083408206701279 0.3587958589196205,-0.32429788261651993 l0.10365872643887997,0.3494756668806076 -0.5777139589190483,0.2634747140109539 l-0.4333741217851639,-0.33363286405801773 0.09406055323779583,-0.5622665211558342 l0.6599757820367813,-0.22464338690042496 0.25470107793807983,0.49866680055856705 l-0.1394145656377077,0.5951220169663429 -0.36876384168863297,0.008503561257384717 l-0.23562708869576454,-0.31273018568754196 0.24902820587158203,-0.20685456693172455 l-0.17561152577400208,0.5106016248464584 -0.17536569386720657,-0.28992144390940666 l0.06356737576425076,-0.02075766446068883 0.414249524474144,-0.0643533980473876 l-0.10690860450267792,0.22074714303016663 -0.45738421380519867,-0.17616616562008858 l-0.08280749432742596,-0.4736505076289177 0.5123550817370415,-0.4350364953279495 l0.1367240771651268,0.7747615873813629 -0.37554752081632614,-0.056792013347148895 l-0.4062720760703087,-0.48857126384973526 0.27357621118426323,-0.40138475596904755 l0.6540665775537491,-0.013565493281930685 0.06839713081717491,0.5908198282122612 l-0.6758354604244232,0.01008491963148117 -0.47510113567113876,-0.4102708399295807 l-0.18764955922961235,-0.6991974264383316 0.25055989623069763,-0.5358519405126572 l0.6394805759191513,0.002561079163569957 0.11005601845681667,0.5558312684297562 l-0.5760617181658745,0.1822194829583168 -0.5851130187511444,-0.3953634947538376 l0.07788758259266615,-0.5258691310882568 0.6732254475355148,-0.16418486833572388 m67.51384110655636,14.306595894148018 l0.47319982200860977,6.263747811317444 -0.05740833468735218,3.9649268984794617 l0.38849271833896637,2.8606340289115906 0.5253981053829193,0.5912508442997932 l3.584147095680237,1.3200972974300385 5.813159942626953,0.7906555384397507 l10.223143100738525,0.41945502161979675 2.5230947136878967,-0.33642999827861786 l2.9010695219039917,-1.0849805176258087 0.9380773454904556,-0.6609585881233215 l1.1027058959007263,-2.0019517838954926 0.8680949360132217,-3.5976219177246094 l0.23449230939149857,-4.384939670562744 -0.19817134365439415,-3.4703513979911804 l-0.48708390444517136,-1.1419211328029633 -0.8780281990766525,-0.729074701666832 l-3.1394660472869873,-0.8809320628643036 -4.483349323272705,-0.30799176543951035 l-7.6918476819992065,1.0276320381308324e-05 -10.216070413589478,0.5762936547398567 l-2.345481216907501,0.7894645631313324 -0.9444235265254974,0.9335651248693466 l-0.1591137796640396,0.5916390940546989 0.3007643297314644,0.6075676530599594 l1.0951940715312958,0.5024632439017296 2.446763813495636,0.5658979341387749 l6.360684037208557,0.5293605849146843 7.217649221420288,0.0002391048110439442 l4.9487921595573425,-0.5087366327643394 3.876689076423645,-1.0737954080104828 l2.4237656593322754,-1.278703361749649 1.8594928085803986,-1.8382304906845093 m-23.99613857269287,3.401557505130768 l-0.08471988141536713,-5.955933332443237 -0.3491207957267761,-3.4345322847366333 l0.8914853632450104,0.1428404077887535 0.3997611999511719,1.120464950799942 l0.4439125955104828,6.801204681396484 0.4255245625972748,2.117680609226227 l-0.15884477645158768,0.3839278966188431 m4.970764219760895,-1.766202449798584 l0.028667959850281477,-6.820434331893921 0.43913666158914566,-0.5233481526374817 l1.049489676952362,-0.4174588993191719 0.3601488098502159,0.4461485520005226 l0.045427014119923115,6.879866719245911 0.13138511218130589,0.7700514793395996 m5.077446699142456,-0.6872223317623138 l0.30100321397185326,-5.572470426559448 0.33113669604063034,-0.5712070316076279 l0.4886399582028389,0.1226752158254385 0.4020899534225464,1.4715036749839783 l-0.44168416410684586,5.01433789730072 0.11525025591254234,0.3617888316512108 m3.920937180519104,0.03377511631697416 l0.4583732411265373,-5.650521516799927 0.4036249965429306,-0.3767021372914314 l0.8701493591070175,0.10138818062841892 0.6755407154560089,1.1837145686149597 l0.13691235333681107,2.1185632050037384 -0.24919599294662476,3.364197015762329 m-17.5284743309021,-4.468612968921661 l-0.13362344354391098,-3.4263622760772705 0.40966805070638657,-0.9714449197053909 l0.8100590109825134,-0.5844166502356529 1.8363849818706512,-0.5023933202028275 l0.31797710806131363,0.5280898883938789 0.18599532544612885,1.6957089304924011 l-0.5233073234558105,2.8696617484092712 m5.121602416038513,-0.25309013202786446 l-0.5598452687263489,-4.400851726531982 0.20585378631949425,-1.3512425124645233 l0.8179336786270142,-0.31483791768550873 0.8858130127191544,0.8176975697278976 l0.42593613266944885,1.73490509390831 -0.0968608632683754,2.625555992126465 l-0.6009678542613983,1.3428539037704468 m4.294045567512512,-0.46308044344186783 l-0.2574143372476101,-3.7024208903312683 0.35768140107393265,-1.3421136140823364 l0.8711881190538406,-0.7417070865631104 0.4649065434932709,0.04830782301723957 l0.7142794132232666,1.1677096784114838 0.3839477151632309,2.306249588727951 l-0.2306596376001835,1.5624871850013733 -0.8198162168264389,1.2063483893871307 m-18.765838146209717,-0.3577364608645439 l-0.1927446573972702,-0.1833113469183445 -0.006760649848729372,-3.1259727478027344 l-0.3269544616341591,-1.862543374300003 0.14559881761670113,-0.8769100159406662 l0.6073640286922455,-0.608128197491169 0.8997011184692383,0.5122280120849609 l0.36359306424856186,0.6984444707632065 0.05083006341010332,1.530543863773346 l-0.7286789268255234,1.4884500205516815 m5.4979366064071655,2.1637558937072754 l-0.23070486262440681,-2.4888886511325836 0.40631361305713654,-2.8948450088500977 l0.33134322613477707,-0.3867568075656891 m65.95561515539885,23.437171552098448 l-0.50904780626297,-1.3632433116436005 -0.2540675736963749,-5.426359176635742 l-0.463181808590889,-5.641127228736877 0.12425622902810574,-2.6520010828971863 l0.5001507699489594,-1.2614552676677704 0.7365373522043228,-0.657554417848587 l1.965465396642685,-0.6427285820245743 2.4983681738376617,-0.1328617613762617 l12.45465874671936,0.5412524938583374 5.779358148574829,-0.2531953901052475 l3.4125664830207825,-0.36395031958818436 2.8942883014678955,0.3425632417201996 l1.5753129124641418,1.09904445707798 0.8887603878974915,2.3768627643585205 l0.24978011846542358,3.1486067175865173 -0.0769425043836236,6.519744396209717 l-0.25247257202863693,1.7282995581626892 -0.4707970842719078,0.37141311913728714 l-2.5603413581848145,0.13987806625664234 -14.246056079864502,-1.0348161309957504 l-11.53962254524231,0.08490750566124916 -3.348919153213501,0.3967762738466263 m8.07181715965271,-15.923701524734497 l-0.5651769042015076,-3.0525046586990356 -0.14574761502444744,-3.4679388999938965 l-0.2958434820175171,-1.8211084604263306 0.2375618740916252,-0.7495962083339691 l1.2172585725784302,-0.8668806403875351 2.4730949103832245,-0.5321228876709938 l0.3998064622282982,0.5395292118191719 0.04620281048119068,0.9899232536554337 l-0.08301964960992336,4.915193617343903 0.31581468880176544,5.490965247154236 m7.117382287979126,-0.5041415616869926 l-0.765245258808136,-7.273842096328735 -0.25238215923309326,-2.799583375453949 l0.3355991095304489,-0.9510128200054169 0.6856518238782883,-0.4926089569926262 l2.7105727791786194,0.0002469872561050579 0.8454637229442596,0.5351299419999123 l0.40122639387845993,1.0424364358186722 0.042363833636045456,2.564932107925415 l-0.8123912662267685,6.207628846168518 -0.05003406200557947,1.184844747185707 m5.103012919425964,0.32876670360565186 l-0.2566090039908886,-1.1105559021234512 -0.38139939308166504,-7.563046216964722 l0.1176169328391552,-1.4655125141143799 0.488261841237545,-0.8083240687847137 l0.9959322214126587,-0.3727559745311737 2.478814274072647,1.4230743050575256 l0.4002794995903969,2.164362370967865 -0.6726238876581192,6.215909719467163 l-0.1809391751885414,1.9001835584640503 m-20.77854633331299,-10.553427934646606 l-0.6203631311655045,-0.6112449243664742 -0.36913126707077026,-1.3536448776721954 l0.2033141441643238,-2.5980573892593384 0.8352412283420563,-1.7410755157470703 l1.1853258311748505,-1.1388329416513443 1.1652102321386337,-0.37094317376613617 l0.6096377968788147,0.4974062740802765 0.5029915645718575,1.4217546582221985 l-0.10872128419578075,2.2919560968875885 -0.673983097076416,1.86279296875 m8.750805854797363,0.9869220852851868 l-0.4507187381386757,-0.6344343721866608 -0.3224256634712219,-1.662541925907135 l0.24082312360405922,-2.4947966635227203 0.8587616682052612,-2.0636193454265594 l1.1469610035419464,-1.0655821859836578 1.1879605799913406,-0.07945727556943893 l0.7736103236675262,0.5572699010372162 0.45385509729385376,1.0712126642465591 l0.10462023317813873,2.182527929544449 -0.07473626639693975,1.682056486606598 l-0.7066599279642105,1.5775166451931 -1.1486244201660156,1.1062730848789215 m6.269353032112122,0.7190454006195068 l-0.8118445426225662,-0.5175935104489326 -0.5695157498121262,-1.127050742506981 l-0.3322006016969681,-1.7546707391738892 0.25655221194028854,-2.431783378124237 l0.43175093829631805,-0.8813286572694778 1.1676300317049026,-0.8858506381511688 l1.9531114399433136,-0.526886060833931 0.5777126550674438,0.15493606217205524 l0.567568838596344,0.9726589173078537 0.10829578153789043,1.2821853160858154 l-0.8172459900379181,3.184424340724945 -1.2470844388008118,2.1851877868175507 l-0.8089444786310196,0.968889519572258 m-22.658445835113525,6.272481083869934 l-0.40823664516210556,-0.7700902968645096 -0.022525822278112173,-1.610848605632782 l0.4799794405698776,-1.9205838441848755 0.9989204257726669,-1.4377525448799133 l1.1277300119400024,-0.531625933945179 0.677141398191452,0.11447875760495663 l0.5149379372596741,1.7288906872272491 m70.41668093530461,19.348792414364766 l-0.5955756083130836,7.812290787696838 0.10758055374026299,3.5315129160881042 l0.43928809463977814,1.3227258622646332 1.3288524746894836,1.3535240292549133 l2.6846730709075928,1.0105893015861511 4.7236040234565735,0.7262998074293137 l6.79598331451416,0.24299627169966698 5.085313320159912,-0.5154658108949661 l4.450376927852631,-1.1672469228506088 3.8371410965919495,-1.6620518267154694 l0.9260524809360504,-0.7414095103740692 0.8131010830402374,-1.5363900363445282 l0.41922517120838165,-3.2399407029151917 -0.1669549010694027,-4.261319935321808 l-0.7447882741689682,-2.382095754146576 -0.6904654204845428,-0.5348717048764229 l-1.8832121789455414,-0.3032027557492256 -5.955818295478821,0.2721361070871353 l-6.718683242797852,-0.12738792225718498 -11.727159023284912,0.09539267979562283 l-2.8383266925811768,0.0005441208486445248 m5.29840350151062,-0.16403157263994217 l-0.062246243469417095,-3.262958824634552 0.032513977494090796,-3.8187208771705627 l0.9176548570394516,-0.7267490774393082 4.74668025970459,0.17408400774002075 l6.307588219642639,-0.3721960633993149 5.0462281703948975,-0.24735726416110992 l0.42828723788261414,2.3621639609336853 0.6862017512321472,5.747116208076477 l0.3896001726388931,1.8870416283607483 m-13.16899061203003,-9.813370108604431 l-0.49768462777137756,-4.5291754603385925 1.1670832335948944,-0.41945725679397583 l6.363791823387146,-0.32202430069446564 0.4262595996260643,0.538591630756855 l-0.39798665791749954,3.9421358704566956 m-4.597073495388031,-4.675825238227844 l-0.4345621168613434,-2.395704984664917 -0.01723595312796533,-2.660154402256012 l0.5164380744099617,-0.10056203231215477 1.4567717909812927,-9.419633215657086e-06 l0.2919456735253334,0.566101185977459 -0.4342406615614891,4.280508756637573 l-0.004500033101066947,0.6058147177100182 m-1.099226251244545,-5.939770340919495 l-0.8417069166898727,-1.2239401042461395 -0.16684336587786674,-0.794946551322937 l0.31479258090257645,-1.2228693813085556 1.1170892417430878,-1.1158537119627 l0.4606279358267784,-0.3932679444551468 0.2661307156085968,2.157934755086899 l0.37319712340831757,1.506531536579132 -0.09682153351604939,0.6805869191884995 l-0.6964970380067825,0.25793055072426796 -0.5625461786985397,-0.11619183234870434 l-0.0673550134524703,-0.10979277081787586 0.533873587846756,-0.22352494299411774 l0.368809774518013,-0.5934896320104599 -0.1482879277318716,-0.5637083575129509 l-0.1412773411720991,0.23048408329486847 0.2915737219154835,0.7967191934585571 l0.32476529479026794,0.31264282763004303 0.18195535987615585,-0.19812358543276787 l-0.1339169219136238,-1.0887488722801208 -0.43983709067106247,-0.4658781737089157 l-0.41562367230653763,0.41589122265577316 0.20765433087944984,0.1450070831924677 l0.35009071230888367,0.055036540143191814 0.26394177228212357,-0.4307202249765396 l-0.6019186228513718,-0.5247502028942108 -0.38864240050315857,0.46898219734430313 l0.45718882232904434,0.6447403877973557 0.5934630334377289,0.17339978367090225 l0.20408224314451218,-0.6237553060054779 -0.21901415660977364,-1.2769408524036407 l-0.4835250601172447,-0.14871013350784779 -0.0538577139377594,1.0468152910470963 l0.45499686151742935,0.4424881935119629 0.46003032475709915,0.00018975923012476414 l0.3262791782617569,-0.7309287786483765 -0.2530414052307606,-1.298528015613556 l-0.5475868657231331,-0.2279571257531643 -0.4292897507548332,1.1531850695610046 l0.06379160564392805,1.4561548829078674 0.46242162585258484,0.16176238656044006 l0.6350415199995041,-0.8401497453451157 0.23521417751908302,-1.6979606449604034 l-0.3509843721985817,-0.14711721800267696 -0.5027030035853386,1.6111786663532257 l-0.0010344498150516301,1.660454273223877 0.5180568248033524,0.24705344811081886 l0.6845786422491074,-0.8691836148500443 0.2082786150276661,-1.7292584478855133 l-0.3304563835263252,-0.20112035796046257 -0.46485885977745056,1.1300141364336014 l-0.009253600146621466,1.0503940284252167 0.39853598922491074,0.1964106597006321 l0.3500400111079216,-1.2013452500104904 -0.37832126021385193,-0.06393431220203638 m-337.5344037920877,61.85425713559482 l-0.18649838864803314,1.1415773630142212 -0.14111642725765705,5.674470663070679 l-0.29237838461995125,5.166078209877014 0.3464806452393532,3.2678377628326416 l0.5430178716778755,0.5515606328845024 3.6732301115989685,0.7539987564086914 l9.463557004928589,0.15774594619870186 11.157416105270386,-1.3080856204032898 l8.80319595336914,-2.233159840106964 1.4667949080467224,-0.5509955063462257 l0.633271262049675,-2.2906485199928284 0.05885247606784105,-5.145739912986755 l-0.9319861978292465,-7.1119225025177 -0.5041324719786644,-1.2270019203424454 l-0.9233659505844116,-0.7034517079591751 -2.8459617495536804,-0.43444491922855377 l-7.511999011039734,0.5730997025966644 -9.110862612724304,-0.1012862753123045 l-5.843680500984192,0.7007686793804169 -3.832058906555176,1.0145412385463715 l-3.9558714628219604,1.0318755358457565 -0.8947169035673141,0.4303671792149544 l-0.4564288631081581,0.9270311892032623 m3.7549585103988647,-5.833004713058472 l0.1550235878676176,1.868257224559784 0.8010021597146988,1.978936791419983 l0.6178820133209229,0.6367514282464981 0.9523956477642059,0.00015167865967669059 l2.123168855905533,-0.8622977137565613 0.8643721044063568,0.006717747310176492 l1.8469628691673279,0.22996002808213234 2.9904934763908386,-0.05807923153042793 l2.4465732276439667,-0.8044970780611038 2.7313485741615295,-1.929498165845871 l1.74538254737854,-0.7601257413625717 2.471262663602829,-0.72673499584198 l2.2908928990364075,-0.11314259842038155 3.5800015926361084,0.322364903986454 l1.5695922076702118,-0.8119811117649078 1.0010561347007751,-1.1744163930416107 l0.43050240725278854,-0.5121023952960968 0.2999195083975792,-1.1350125074386597 l-0.4903566464781761,-1.4058977365493774 -0.8446740359067917,-0.8461613208055496 l-1.7785656452178955,-0.9337016940116882 -3.4570568799972534,-0.5775900185108185 l-4.752527475357056,0.15180679038167 -7.795703411102295,1.6224968433380127 l-5.362691283226013,1.7325662076473236 -2.2218216955661774,1.3183316588401794 l-0.8217880874872208,1.0058297216892242 -0.3746030107140541,1.4182938635349274 l0.42098212987184525,1.3738636672496796 m7.174056768417358,-2.9031234979629517 l-0.7642065733671188,-3.5764867067337036 -0.08514927700161934,-3.921516537666321 l1.5996193885803223,-0.013081677025184035 0.2909938059747219,0.5221853777766228 l0.19375260919332504,5.755801200866699 0.30499737709760666,1.6259732842445374 m6.22888445854187,-1.9525757431983948 l-0.5586637556552887,-3.8924476504325867 -0.1534487120807171,-2.976970672607422 l2.313215285539627,-0.6360795348882675 1.1295188218355179,-0.4925176873803139 l0.3503600135445595,0.5052436143159866 -0.2251514233648777,5.904174447059631 l0.22574521601200104,1.6314689815044403 m3.2155656814575195,-0.3346007689833641 l-0.0329732708632946,-5.343311429023743 0.2605627290904522,-1.1696641892194748 l0.49895569682121277,-0.22651184350252151 2.4267172813415527,0.33626895397901535 l0.29528481885790825,0.5011286586523056 -0.42833995074033737,4.210609495639801 l0.14242134988307953,2.1109698712825775 m-14.030650854110718,-8.952764868736267 l-0.6583519279956818,0.35633571445941925 -0.48614878207445145,0.25322338566184044 l-0.32804619520902634,0.36426402628421783 -0.11193552985787392,0.6815908849239349 l0.7571620494127274,1.5045619010925293 0.7138440757989883,0.3667100518941879 l0.9394935518503189,-0.41744913905858994 0.8040161430835724,-1.1687175184488297 l0.3673326224088669,-1.57405287027359 -0.2723448723554611,-0.6416916847229004 l-0.566326417028904,-0.35505805164575577 -1.0516709089279175,0.14049404300749302 l-0.6093341484665871,0.9645894169807434 -0.06380935199558735,1.0760276019573212 l0.48031143844127655,0.6356903910636902 1.1786306649446487,-0.09787074290215969 l1.2073787301778793,-0.9688352793455124 0.589938722550869,-1.713823676109314 l-0.3228938952088356,-0.40931329131126404 -1.0174204409122467,0.40852658450603485 l-0.5603794753551483,1.4929428696632385 0.16512906178832054,1.178416833281517 l0.9448340535163879,0.35886287689208984 m70.59089726943057,23.310178239544257 l-0.09922795929014683,8.93536925315857 0.5523231998085976,3.4666627645492554 l0.39543572813272476,0.4255020245909691 3.0776816606521606,0.34983985126018524 l10.586706399917603,0.00013806116839987226 5.5434733629226685,-0.9049059450626373 l1.4173072576522827,-0.43549463152885437 0.5369735509157181,-0.5758985504508018 l0.3082283027470112,-1.7299136519432068 -0.6232626736164093,-9.293554425239563 l-0.4794331267476082,-1.627136468887329 -0.7767224311828613,-0.5098440125584602 l-2.076680064201355,-0.2353687770664692 -6.3149237632751465,-0.00010167407708649989 l-8.807698488235474,1.0566363483667374 -3.469286859035492,0.4336906224489212 m5.9468042850494385,-1.582912653684616 l-0.7966417819261551,-4.8017629981040955 -0.02007107948884368,-1.7901967465877533 l3.0735284090042114,-0.08767631836235523 4.334153831005096,-0.407203733921051 l3.2863786816596985,0.4576050862669945 0.6774340569972992,1.7602814733982086 l0.09774468839168549,4.495251774787903 m-8.906587362289429,-6.987478137016296 l0.10139130055904388,-3.049483895301819 0.36192696541547775,-0.4093068838119507 l2.5866886973381042,0.159721989184618 2.0386579632759094,0.1642666757106781 l0.0922189187258482,1.950831264257431 -0.02649000147357583,1.2730391323566437 m-3.4095725417137146,-3.6039727926254272 l-0.5207393318414688,-2.4462851881980896 m2.4752847850322723,2.3643583059310913 l-0.16196850687265396,-2.158663421869278 m-2.06393301486969,3.4077227115631104 l-0.0879746861755848,-1.4206789433956146 m0.23225978016853333,4.198809266090393 l0.5979661270976067,-1.5692058205604553 m1.3639633357524872,3.178601861000061 l0.6138632073998451,-2.0661507546901703 m1.2721624970436096,1.0460281372070312 l0.6032976508140564,-2.1181535720825195 m-0.14767887070775032,1.6711746156215668 l0.3636816143989563,-2.1370072662830353 m-3.5265150666236877,5.101909637451172 l-0.1254436932504177,-1.6565842926502228 m-4.078071415424347,3.797571361064911 l0.4906553775072098,-2.233833372592926 m2.717442512512207,1.789737343788147 l0.3430069610476494,-1.8108676373958588 m2.406326085329056,0.6287503987550735 l0.4450027644634247,-1.5482552349567413 m0.7912695407867432,1.4194904267787933 l0.5286333337426186,-1.8502126634120941 m0.5441265553236008,1.4517171680927277 l0.3473701700568199,-1.2714621424674988 m-5.930194854736328,0.8061767369508743 l-0.020613328088074923,-1.4341814815998077 m-1.9603024423122406,2.245306372642517 l0.26781465858221054,-1.3249392807483673 m-2.889876663684845,1.5479722619056702 l0.28409095481038094,-1.1971370875835419 m-2.114436626434326,0.9132289886474609 l0.5564166978001595,-1.1700093746185303 m5.159173011779785,0.7032127678394318 l0.3315141424536705,-0.937359407544136 m1.8821941316127777,0.4684501141309738 l0.5826164036989212,-0.5315332114696503 m0.5517942830920219,1.1800391227006912 l0.657908096909523,-0.7751244306564331 m-5.884649157524109,0.15670213848352432 l-0.0402030348777771,-0.9054112434387207 m-2.2974711656570435,1.1803888529539108 l-0.3406296670436859,-1.7168490588665009 m-1.4579018950462341,1.988551914691925 l-0.07445011287927628,-1.593860387802124 m-1.2947569787502289,0.9200643002986908 l0.10608941316604614,-0.776960700750351 m3.3183014392852783,0.9096036851406097 l0.15358448959887028,-0.6822687387466431 m3.2243281602859497,-0.260664913803339 l0.23627664893865585,-0.5056252330541611 m1.1533699929714203,0.551680363714695 l0.4394439235329628,-0.4161224886775017 m1.1100871115922928,0.2863435260951519 l0.2004251442849636,-0.4227268323302269 m-3.704445958137512,1.1152475327253342 l0.03913863096386194,-0.9028953313827515 m-2.700272500514984,0.8376433700323105 l-0.06299750413745642,-0.8981654793024063 m-2.580742835998535,1.0844511538743973 l0.016627077711746097,-0.4355223849415779 m-2.1600081026554108,1.3178545236587524 l-0.06488791666924953,-1.243252232670784 m-1.170814260840416,2.18429759144783 l0.2982092835009098,-0.7960540056228638 m2.4052152037620544,0.9673823416233063 l0.5318739265203476,-0.6723394989967346 m1.9689494371414185,0.6179409101605415 m73.025126105058,-5.189958835621837 l0.09105638600885868,3.632235825061798 -0.7620806246995926,7.423210144042969 l0.19136767834424973,0.9669072926044464 1.5509766340255737,1.8199078738689423 l3.3812877535820007,1.978994756937027 3.841871917247772,1.191672757267952 l5.169382095336914,0.7688353955745697 5.147108435630798,0.09939066134393215 l3.7555617094039917,-0.6432177871465683 1.33196622133255,-0.6031293421983719 l1.7301185429096222,-1.6209611296653748 2.0601333677768707,-3.2607725262641907 l0.9040290862321854,-3.3243271708488464 0.3649810701608658,-4.079402685165405 l-0.38285259157419205,-2.146160751581192 -0.6226275861263275,-0.7809833437204361 l-1.0872261971235275,-0.6362053006887436 -3.057972490787506,-0.6780923902988434 l-7.045368552207947,-0.09160985238850117 -11.743770837783813,-0.44397778809070587 l-4.726163744926453,0.14926384203135967 m7.545258402824402,-0.15522034838795662 l0.14902157709002495,-2.008206993341446 0.10857874527573586,-4.590787887573242 l1.439003050327301,-0.4770306125283241 0.31963299959897995,0.3908633813261986 l-0.02444184385240078,6.472681760787964 0.28130048885941505,1.5868011116981506 m5.637737512588501,-1.1346374452114105 l0.2665436640381813,-3.118002712726593 1.0484179109334946,-3.3645057678222656 l0.43903298676013947,-0.16116544604301453 1.6714927554130554,0.2389475516974926 l0.2390526421368122,0.4155275970697403 -0.786939412355423,6.874375343322754 l0.13937609270215034,1.300026774406433 m-9.348011016845703,-6.719852089881897 l-0.7650017738342285,-0.7078004628419876 -0.33484384417533875,-1.0847058147192001 l0.06842993199825287,-1.0122355818748474 0.9517098963260651,-2.0320652425289154 l0.12227380648255348,0.06338901352137327 0.36371685564517975,1.3402868807315826 l0.16502832993865013,2.552708387374878 -0.29694270342588425,0.8339187502861023 m5.885493159294128,-0.4242311790585518 l-0.2943878807127476,-2.5469407439231873 0.31588446348905563,-1.3665708899497986 l0.4961088299751282,-0.5538220331072807 0.5544453486800194,0.22574398666620255 l0.24123696610331535,1.4485666155815125 -0.7802323251962662,2.7368390560150146 l0.06804230622947216,0.9910950809717178 m4.589451551437378,-1.148831993341446 l-0.24142006412148476,-4.68671590089798 0.4351229965686798,-0.4770151525735855 l0.37706900388002396,0.4880596697330475 0.14900513924658298,1.923014521598816 l-0.15269745141267776,2.945002317428589 m-19.004181623458862,5.430946946144104 l0.08960364386439323,-0.3736647590994835 0.36820728331804276,-1.9448988139629364 l0.5582535266876221,-1.4628595113754272 1.2046928703784943,-0.8396003395318985 l0.48023249953985214,0.2919838950037956 0.7883290946483612,2.482134848833084 l-0.05735070910304785,1.0784877091646194 m0.7769386470317841,-3.3615270256996155 l0.02581452950835228,-2.7542269229888916 0.8622731268405914,0.11717232875525951 l0.38961466401815414,0.6400839239358902 0.09824514389038086,1.6796089708805084 m3.5703423619270325,0.9841740876436234 l0.1760704256594181,-2.660233974456787 0.5795907601714134,-0.6552454084157944 l0.726223960518837,0.07863305509090424 0.5436209961771965,1.3869677484035492 l0.08475796319544315,2.4543343484401703 m2.8169378638267517,-0.7645966857671738 l0.37823740392923355,-3.811182677745819 0.5076773464679718,-0.2817099541425705 l0.7840237766504288,1.1794041842222214 0.12482980266213417,1.0781654715538025 l-0.04096866585314274,1.3698244094848633 m2.385729104280472,0.5340210348367691 l0.7241588830947876,-2.094912528991699 0.8933065831661224,-0.9224504977464676 l0.9589533507823944,-0.13378494419157505 0.7155568152666092,0.8618331700563431 l0.1607380248606205,1.7440782487392426 -0.7287570089101791,1.6106179356575012 m-19.505256414413452,5.631036758422852 l0.7484041154384613,1.8505635857582092 1.1242830008268356,0.715651735663414 l1.0571664571762085,-0.14813562855124474 2.2366629540920258,-1.9388960301876068 l0.5040416121482849,0.0361358979716897 1.039472371339798,1.569979190826416 l0.7892664521932602,0.22023824974894524 1.8672439455986023,-0.6188319995999336 m72.99309714697301,-6.995779042031245 l5.065726637840271,-1.145787239074707 5.803471803665161,-0.6371359527111053 l5.801625847816467,-0.0021605024812743068 2.8064358234405518,0.539325661957264 l2.20885768532753,1.011790856719017 0.9645924717187881,0.9438158571720123 l0.38418177515268326,1.0868232697248459 -0.03237665165215731,0.886785015463829 l-1.1362094432115555,1.2555994093418121 -2.017510086297989,1.1393069475889206 l-3.1369876861572266,0.6172200292348862 -6.143534183502197,0.2189490757882595 l-3.5803624987602234,-0.479351282119751 -3.0380892753601074,-0.9352301061153412 l-1.782800555229187,-1.151193529367447 -1.2670713663101196,-1.5724708139896393 l-0.35008884966373444,-1.6417482495307922 0.3737964481115341,-0.8576124906539917 l0.7858195900917053,-0.5850562825798988 m-0.815117359161377,1.488790363073349 l0.12126654386520386,8.529685139656067 0.5980232357978821,3.1400296092033386 l0.5259964615106583,0.26633482426404953 3.486376106739044,-0.022153526078909636 l5.261642336845398,-0.6109193339943886 5.507398247718811,-0.16925014555454254 l4.073171317577362,-0.8219849318265915 2.8908154368400574,-0.22023852914571762 l0.25467226281762123,-1.5887685120105743 -0.5768248438835144,-5.720149278640747 l-0.24888692423701286,-1.2230166792869568 m-15.133662223815918,-0.5643536522984505 l-0.385788269340992,-3.8597723841667175 -0.3229091688990593,-2.6144078373908997 l0.6323384493589401,-0.13944702222943306 0.8976446837186813,0.00014181624464981724 l0.3087408281862736,0.42289137840270996 0.5682381987571716,5.941866040229797 l0.21267328411340714,0.8990903198719025 -1.7481589317321777,0.07967011071741581 m-0.38965675979852676,-8.198543190956116 l-0.905318483710289,-1.12175814807415 -0.2099246345460415,-0.9451226890087128 l0.15776274725794792,-0.9668359905481339 0.6528446823358536,-0.6226867064833641 l0.48147808760404587,-0.3301715850830078 0.3878866136074066,0.6872259080410004 l0.7364245504140854,2.8684037923812866 -0.07807720452547073,0.7147011905908585 m5.931868553161621,6.507935523986816 l-0.7154145836830139,-2.680630087852478 -0.58160200715065,-3.631429970264435 l2.443511337041855,-0.39051350206136703 0.31492333859205246,0.7455288618803024 l0.12312192469835281,5.967448353767395 -1.0322894155979156,0.15929626300930977 l-1.4809481799602509,-0.38353774696588516 m-0.0797481369227171,-6.948875188827515 l-0.2719872444868088,-1.620696485042572 0.20035266876220703,-0.8462991565465927 l1.07526995241642,-1.3231883943080902 0.42829956859350204,0.7327534258365631 l0.10118561796844006,1.7038343846797943 -0.7025042921304703,1.5839166939258575 l-0.34497473388910294,0.11583993211388588 m-8.4324312210083,7.232317328453064 l-0.32007545232772827,0.3310222178697586 0.27324263006448746,0.5575567111372948 l2.020826041698456,0.4852936416864395 2.2455132007598877,-0.7487151026725769 l1.7338186502456665,-1.278003752231598 0.7922603935003281,0.01760596176609397 l1.4113754034042358,0.5912234634160995 1.9470199942588806,0.026223505847156048 l1.5990188717842102,-0.6725747138261795 2.151329517364502,0.45506399124860764 l2.303498685359955,-0.34423138946294785 1.533871442079544,-1.0447411984205246 m-18.293102979660034,4.503490626811981 l1.5450021624565125,-0.06037892773747444 4.485514461994171,0.00039203889173222706 l5.721137523651123,-0.033764762338250875 5.7899439334869385,-1.0125810652971268 l1.6838455200195312,-0.783219188451767 m-19.089263677597046,3.213456869125366 l1.2679331004619598,0.3746015951037407 3.266373872756958,-0.11141269467771053 l7.497026324272156,-0.9376467764377594 5.276237726211548,-0.4500281810760498 l1.858171820640564,-0.8146297931671143 m-18.869140148162842,0.3109452687203884 l1.7546437680721283,0.0686830747872591 3.010816276073456,-0.6746182590723038 l3.0420643091201782,-1.2056981772184372 2.1960456669330597,-0.36338236182928085 l1.566881686449051,0.1583118923008442 4.6198490262031555,0.6152904406189919 l3.976532518863678,-0.3758889436721802 m-19.62844491004944,2.446013242006302 l3.13689261674881,-0.10248695500195026 m64.71201482694596,19.27680891070395 l3.765394389629364,0.1386001519858837 10.036869049072266,-0.9307584911584854 l11.266303062438965,0.35642314702272415 3.6061784625053406,-0.48185795545578003 l3.093665838241577,0.17239252105355263 2.621978223323822,-0.1981736533343792 l1.7841723561286926,-0.2892879955470562 1.2255068123340607,-0.6236953660845757 l0.7744139432907104,-1.4523817598819733 0.8081629127264023,-3.7700650095939636 l0.4320140928030014,-6.0255348682403564 -0.47102317214012146,-4.0160879492759705 l-0.5572527647018433,-3.977019786834717 -0.7706573605537415,-1.2643493711948395 l-0.9257984906435013,-0.5639360100030899 -2.0854121446609497,-0.3380511701107025 l-6.450088024139404,0.31486619263887405 -7.197268009185791,1.1467967182397842 l-9.684299230575562,0.6728165596723557 -5.754899382591248,0.9283284842967987 l-3.7777650356292725,1.4865484833717346 -2.2955334186553955,1.3511183857917786 l-0.5786828696727753,0.7377523183822632 -0.5671273171901703,3.119845688343048 l0.6320244818925858,7.571308612823486 1.3631540536880493,4.609181880950928 l0.40438584983348846,0.4575609043240547 m5.618425607681274,-23.393895626068115 l-0.399862676858902,-0.9276612848043442 -0.25506002828478813,-2.475636303424835 l-0.05755226593464613,-3.412272334098816 0.3009161539375782,-3.406875729560852 l3.279838263988495,-0.46065639704465866 -0.11325168423354626,4.063909649848938 l0.43174851685762405,6.1103856563568115 0.23209650069475174,1.9821345806121826 m6.999868154525757,-1.9671960175037384 l-0.3649165853857994,-2.866940498352051 -0.2894601784646511,-6.764538288116455 l0.1947428286075592,-1.1902109533548355 3.4713563323020935,-0.6608030945062637 l0.5019675940275192,0.28497667983174324 0.47966767102479935,8.687173128128052 l0.39571400731801987,1.7654268443584442 m7.718715667724609,-0.13553164899349213 l-0.813908725976944,-4.197198152542114 -0.23538706824183464,-5.931445956230164 l3.3924782276153564,-0.052588265389204025 0.3870696946978569,0.5523493513464928 l0.2732617221772671,7.776992917060852 0.22291123867034912,1.7567072808742523 m-17.746068239212036,-10.052798986434937 l-0.6152601167559624,-1.2953071296215057 -0.03431246615946293,-1.1539571732282639 l0.7150985300540924,-2.3591625690460205 0.8203916251659393,-0.5348199978470802 l1.630629450082779,0.18967652693390846 0.5745920911431313,0.5006971955299377 l0.3059335798025131,1.4937196671962738 -0.22883491590619087,2.378973513841629 l-0.6849842518568039,1.2144117802381516 m9.950045943260193,-0.14570417813956738 l-1.5963083505630493,-3.783927261829376 -0.27266060933470726,-1.6788645088672638 l0.26372484862804413,-0.6837668269872665 1.3953711092472076,-0.9140460938215256 l1.455366313457489,-0.016630361787974834 0.6913773715496063,0.49079619348049164 l0.5269765481352806,1.362883746623993 0.06135798059403896,2.2976846992969513 l-0.27155807241797447,1.3625316321849823 -1.3950486481189728,2.069929540157318 l-1.231706663966179,1.0022227466106415 m-30.37236452102661,6.545612812042236 l1.6641652584075928,0.6437738239765167 3.6563342809677124,0.3658020496368408 l3.5337895154953003,-0.17207816243171692 5.27038037776947,-1.622493863105774 l2.982843816280365,-0.2575059235095978 2.738146483898163,0.3423300012946129 l4.350085556507111,1.707899123430252 2.131832391023636,0.3788784146308899 l3.699163496494293,0.00038890677387826145 3.4911367297172546,-0.7980857789516449 l1.8570278584957123,-0.05788255017250776 3.0943292379379272,0.6454446911811829 l3.217594027519226,-0.16729984432458878 2.1729430556297302,-0.5887331068515778 m-41.904892921447754,4.1741251945495605 l3.279302418231964,0.49971699714660645 4.0934765338897705,-0.6542322039604187 l3.8106030225753784,0.20617187023162842 2.4728894233703613,0.8603833615779877 l3.2646149396896362,0.29715945944190025 4.030516147613525,-0.42221736162900925 l3.987032473087311,-0.9086117893457413 3.131091892719269,-0.17166795209050179 l2.710444927215576,0.3655281290411949 2.5702783465385437,1.0316462069749832 l3.6593064665794373,0.5028005689382553 " fill="none" stroke="black" stroke-width="1" /></svg>